<svg id="Layer_1" data-name="Layer 1" xmlns="http://www.w3.org/2000/svg" xmlns:xlink="http://www.w3.org/1999/xlink" viewBox="0 0 1920 330.09"><defs><style>.cls-1{fill:#fbfbfb;}.cls-2{fill:url(#linear-gradient);}</style><linearGradient id="linear-gradient" x1="461.16" y1="661.28" x2="461.16" y2="660.28" gradientTransform="matrix(1920, 0, 0, -323.18, -884465, 213713.14)" gradientUnits="userSpaceOnUse"><stop offset="0" stop-color="#8e8bc3"/><stop offset="1" stop-color="#69c7ee"/></linearGradient></defs><rect id="bg" class="cls-1" x="0.5" y="0.09" width="1919" height="330"/><path id="Path_89" data-name="Path 89" class="cls-2" d="M.5-.09h1920v313S1764.33,271,1640.2,271c-72,0-181.46,42.5-328.6,42.5s-255.85-64.87-390.8-64.87c-66.64,0-330.88,74.48-449,74.48-67.32,0-177.75-49.85-296.24-52.5S.5,312.91.5,312.91Z" transform="translate(-0.5 0.09)"/><path id="Path_90" data-name="Path 90" class="cls-1" d="M414.49,265.63c23.34,4.53,41.33,13,40.19,18.81s-21,6.93-44.31,2.39-41.34-13-40.2-18.82S391.15,261.09,414.49,265.63Z" transform="translate(-0.5 0.09)"/></svg>