<svg id="Leaderboard" xmlns="http://www.w3.org/2000/svg" xmlns:xlink="http://www.w3.org/1999/xlink" viewBox="0 0 1920 323.45"><defs><style>.cls-1{fill:url(#linear-gradient);}.cls-2{fill:url(#linear-gradient-2);}.cls-3{fill:url(#linear-gradient-3);}.cls-4{fill:url(#linear-gradient-4);}</style><linearGradient id="linear-gradient" x1="461.16" y1="661.26" x2="461.16" y2="660.26" gradientTransform="matrix(1920, 0, 0, -323.18, -884465, 213713.4)" gradientUnits="userSpaceOnUse"><stop offset="0" stop-color="#8e8bc3"/><stop offset="1" stop-color="#69c7ee"/></linearGradient><linearGradient id="linear-gradient-2" x1="459.72" y1="660.75" x2="460.72" y2="660.67" gradientTransform="matrix(524.42, 0, 0, -293.88, -240994.59, 194315.88)" gradientUnits="userSpaceOnUse"><stop offset="0" stop-color="#7fdece"/><stop offset="0.51" stop-color="#8be2bf"/><stop offset="1" stop-color="#abeca0"/></linearGradient><linearGradient id="linear-gradient-3" x1="459.69" y1="660.71" x2="460.69" y2="660.63" gradientTransform="matrix(512.28, 0, 0, -284.29, -234168.83, 187967.2)" xlink:href="#linear-gradient-2"/><linearGradient id="linear-gradient-4" x1="456.62" y1="659.49" x2="457.62" y2="659.41" gradientTransform="matrix(150.9, 0, 0, -114.77, -67158.49, 75741.6)" xlink:href="#linear-gradient-2"/></defs><path id="Path_89" data-name="Path 89" class="cls-1" d="M.11,3.87h1920v313s-156.17-41.93-280.3-41.93c-72,0-181.46,42.51-328.6,42.51s-255.85-64.88-390.8-64.88c-66.64,0-330.88,74.49-449,74.49-67.32,0-177.76-49.86-296.24-52.5S.11,316.87.11,316.87Z" transform="translate(-0.11 -3.61)"/><g id="Group_10" data-name="Group 10"><path id="Path_50" data-name="Path 50" class="cls-2" d="M151.25,3.63s3.69,28.61-7.88,43.06c-5.92,7.38-14.33,11.86-21.68,17.62s-14.13,14-14.11,23.64c0,16.75-1.26,32.3,4.65,47.83a759,759,0,0,0,37.66,83.44c3.73,7.07,8.54,14.83,16.09,16.05q-14.31-37-25.76-75.13c5,0,10.72.44,13.64,4.71,2.41,3.55,1.9,8.36,2.64,12.66a40.65,40.65,0,0,0,4.71,11.76l47.68,87.12s16.76,1.65,31.87,3.83,85.36,17.3,85.36,17.3,3.65-10-6.72-9.24c-2.71-6.29,1.83-13.39,6.72-18S337,261.25,338,254.43c1.67-10.74-11.23-18.9-21-15.69S301,252,296.81,262c-2.37,5.72-4.38,11.73-8.12,16.55s-9.77,8.27-15.47,6.72c-8.06-2.19-11.18-12.36-13-21-2.4-11.58-4.8-23.33-4.3-35.18s4.26-24,12.49-32c13.41-13.07,34-11.79,52.07-9.7-4.27-5.12-3.21-13.74,1.36-18.55a19,19,0,0,1,18-4.7A24.58,24.58,0,0,1,353.83,173c5.14,6.66,6.6,15.65,10.49,23.2s12.63,14,19.78,9.95c6.18-3.5,7.16-12.6,5.62-19.85s-4.8-14.32-4.25-21.73c1.07-14.15,14.88-22.66,27.06-28.49s26.14-13.66,28.07-27.7a26.83,26.83,0,0,1,1.44-8,15.25,15.25,0,0,1,5.46-5.45c35.57-25,71.72-50.23,112.37-63.86,2.12-.71,2.37.08,4.52-.48,3-1.85,1-7-1.87-9s-6.76-3.64-7.49-7.26c-.54-2.66.93-5.27,1.31-8,.95-6.6,35.37,1.52,37.54,9.13,8.48,4.58,17.7,9.3,27.1,7.69S631.9,3.77,631.9,3.77Z" transform="translate(-0.11 -3.61)"/><path id="Path_70" data-name="Path 70" class="cls-3" d="M1351.27,3.92c-3.81,2.61-9.8,11.37-12.07,15.54-2.15,4.68-2,10.12-1.86,15.33l2,63.19c.26,8.12.59,16.54,4,23.82,4.27,9.08,12.72,15,18.59,23a47.1,47.1,0,0,1,8.82,28.84c-.13,4.18-.52,9.13,2.55,11.75a10.72,10.72,0,0,0,6.27,1.92l80.5,7c14.16,1.23,29.85,3.25,39.1,14.71,4.36,5.41,7.87,13.18,14.55,13.76,2.86.25,5.65-1,8.52-1.24,7.24-.61,13.59,5.22,17.6,11.64a54.16,54.16,0,0,1,7.81,33.15c-.65,7.32-1.75,14.18-2.21,21.52,86-17.75,111.47-12.44,134.31-11.27s90.21,9.71,90.21,9.71,61.45-81.76,78.27-135.22c1.6-5.1,2.36-11.9-1.92-14.79a11.6,11.6,0,0,0-8.14-.9l-37.11,5c-4.61.62-9.49,1.2-13.73-.84s-7.26-7.72-5-12c6.3-12.13-6.66-27.44-12.42-39.87-15.51-33.45-37.45-54-58.63-83.75C1712,3.93,1351.29,3.22,1351.27,3.92Z" transform="translate(-0.11 -3.61)"/><path id="Path_71" data-name="Path 71" class="cls-4" d="M1900.8,3.81s-18,17.43-16.46,22.3c2.27,7.4,12.79,8,16.46,14.7,2.73,5,.48,11.66-3.42,15.7s-9.11,6.26-13.88,9.08c-15.46,9.13-26.46,24.72-40,36.85s-32.58,21-48.69,13.2c3.84-20.65-19.32-35.8-23.58-56.36-1.4-6.76-.67-14-2.67-20.54-2.9-9.54-17.47-34.94-17.47-34.94Z" transform="translate(-0.11 -3.61)"/></g></svg>