<svg id="Version_4" data-name="Version 4" xmlns="http://www.w3.org/2000/svg" xmlns:xlink="http://www.w3.org/1999/xlink" viewBox="0 0 280.83 352.15"><defs><style>.cls-1{fill:url(#linear-gradient);}.cls-2{fill:none;stroke:#b73d5b;stroke-miterlimit:10;stroke-width:2.5px;}.cls-3{fill:#dda13c;}.cls-4{fill:url(#linear-gradient-2);}.cls-5{fill:url(#linear-gradient-3);}.cls-6{fill:url(#linear-gradient-4);}</style><linearGradient id="linear-gradient" x1="334.07" y1="155.46" x2="162.35" y2="434.22" gradientUnits="userSpaceOnUse"><stop offset="0" stop-color="#dda13c"/><stop offset="1" stop-color="#b73d5b"/></linearGradient><linearGradient id="linear-gradient-2" x1="202.59" y1="412.9" x2="193.81" y2="417.97" xlink:href="#linear-gradient"/><linearGradient id="linear-gradient-3" x1="150.84" y1="300.74" x2="126.41" y2="314.85" xlink:href="#linear-gradient"/><linearGradient id="linear-gradient-4" x1="357.71" y1="251.19" x2="163.56" y2="363.28" xlink:href="#linear-gradient"/></defs><path class="cls-1" d="M375,181l-26,32c-48-45-98.8-38.19-118-33C24,236,131,518,330,420l9,15C83,555-15,172,256,143,282.85,140.13,315,141,375,181Z" transform="translate(-94.17 -106.05)"/><path class="cls-2" d="M125,202.5" transform="translate(-94.17 -106.05)"/><path class="cls-2" d="M99,202.5" transform="translate(-94.17 -106.05)"/><path class="cls-3" d="M345,153l25,15s4.91-9.72,4-13c-1.42-5.08-15-11-18-11C352.45,144,345,153,345,153Z" transform="translate(-94.17 -106.05)"/><path class="cls-3" d="M274,123l46,11s1.95-12.5,0-16c-5-9-22-17-37-8C279.73,112,274,123,274,123Z" transform="translate(-94.17 -106.05)"/><path class="cls-3" d="M282,139c9,1,24,5,24,5l1-11-23-5Z" transform="translate(-94.17 -106.05)"/><path class="cls-4" d="M202,414c-3.33-1.87-7.16-2.21-10.94-2.69a7.2,7.2,0,0,1-1.35-.34A119.49,119.49,0,0,0,206.6,420a1.32,1.32,0,0,1-.16-.25C205.3,417.56,204.18,415.16,202,414Z" transform="translate(-94.17 -106.05)"/><path class="cls-5" d="M137,329a64,64,0,0,0,5.25-5.24,12.2,12.2,0,0,0-1.51-16.68,11.81,11.81,0,0,1,3.07-5.81l4.53,5.76c1.6-.18,2-2.52,1.11-3.86s-2.46-2-3.75-3-2.37-2.66-1.69-4.11c.23-.49.65-.88.89-1.37.92-1.87-.9-3.86-2.41-5.29s-2.86-4-1.29-5.38c-1.14.58-2.15-.76-2.39-2.1a119.78,119.78,0,0,0-1.25,52.22C137.3,332.44,137.11,330.71,137,329Z" transform="translate(-94.17 -106.05)"/><path class="cls-6" d="M348.13,237.06a119.21,119.21,0,0,0-206.82,36.25c6.17,6.23,39.91-2.82,44.8-22.2.69-2.78,5.45-1.82,8.29-2.16,11.22-1.34,22.09,9.54,32.77,5.86,1-1.88-1.67-3.61-3.8-3.82s-4.94-.67-5.17-2.79c-.18-1.64,1.4-3.64.13-4.69a2.57,2.57,0,0,0-1.55-.41l-5.79-.28a14.83,14.83,0,0,1,16.7-5c4.62,1.73,8.5,5.85,13.43,5.81a5,5,0,0,1,1.89.16c2.07.8,1.31,4-.12,5.66a17.93,17.93,0,0,1-8.24,5.5l10.89,1.69a11.82,11.82,0,0,0,4.92.07,4,4,0,0,0,3.1-3.45c0-1.47-1-3.18,0-4.25a3,3,0,0,1,1.78-.69l7.78-1.19a3.13,3.13,0,0,1,1.52,0,3,3,0,0,1,1.52,1.88,26.37,26.37,0,0,1,1.74,6.63c2,.82,4.93,1,6.89,1.8a11.52,11.52,0,0,1-1.89-4.64,3.92,3.92,0,0,1,2.24-4.11c1-.35,2.44-.26,2.87-1.26s-.51-1.93-.47-2.95c.08-1.82,2.67-2.07,4.46-1.74l30.16,5.54a3.19,3.19,0,0,1,1.42.5c1.21.91.63,2.79.74,4.3.15,2.24,2,3.95,2.93,6s0,5.35-2.18,5.09c-1.68-.19-2.48-2.27-4.05-2.88s-3.5.64-4.15,2.26a10.19,10.19,0,0,0-.21,5.18q-3.93-2.11-8-3.9a18.4,18.4,0,0,0-5.61-1.7,4.37,4.37,0,0,1-2.1-.47c-1.59-1.08-.53-3.58.78-5s2.89-3.34,1.89-5a28.27,28.27,0,0,0-22.41,8.85,2.18,2.18,0,0,0-.66,1.12c-.19,1.32,1.83,1.95,2.09,3.26a1.91,1.91,0,0,1-1.66,2,5.65,5.65,0,0,1-2.81-.46l-7.91-2.79a3.23,3.23,0,0,0-2-.25c-1.08.35-1.47,1.64-2.21,2.49-1.4,1.62-3.87,1.52-6,1.8a13.44,13.44,0,0,0-10.69,8.87,4.72,4.72,0,0,0-.14,3.29,5.2,5.2,0,0,0,1.95,2.08,27.94,27.94,0,0,0,5.29,2.95,21,21,0,0,1,4.74,2.31,7.9,7.9,0,0,1,2.14,9.6c1.59,1.56,4.41.42,5.73-1.37s1.89-4.09,3.33-5.79c2.65-3.13,7.72-3.62,9.91-7.09,2-3.19.69-7.4,1.46-11.09a1.88,1.88,0,0,1,.84-1.41c.73-.33,1.52.24,2.27.53,3,1.16,5.84-2.64,9.09-2.74,3.54-.11,5.53,3.86,8,6.38a11.9,11.9,0,0,0,10.43,3.26A9.45,9.45,0,0,0,306.49,289c1.15,1.08,2.65,2,3.14,3.47,1.11,3.44-3.85,6.55-3,10.06.73,3,5,3.61,6.46,6.34,1.54,2.94-1.36,6.61-4.63,7.14s-6.48-1-9.43-2.52a7,7,0,0,1,1.81-7,18.24,18.24,0,0,0,2.56-2.32c.67-.94.79-2.45-.16-3.1a3,3,0,0,0-1.9-.33,80.27,80.27,0,0,0-16.72,2.73c-1.82.5-4.07,2.25-2.93,3.76a3.26,3.26,0,0,1,4.28,3.3c-.14.88-.66,1.74-.47,2.61.26,1.18,1.6,1.7,2.61,2.38s1.7,2.35.65,3c-.75.18-.83-.08-1.57.15-14.15,4.47-26.73,12.76-39.11,20.93a5.18,5.18,0,0,0-1.9,1.79,8.23,8.23,0,0,0-.5,2.64c-.68,4.6-5.53,7.17-9.77,9.08s-9.05,4.7-9.42,9.34c-.2,2.43.94,4.74,1.48,7.12s.19,5.36-2,6.5c-2.49,1.33-5.53-.78-6.89-3.26s-1.86-5.42-3.65-7.6a8.54,8.54,0,0,0-4.85-2.9,6.89,6.89,0,0,0-6.27,1.54,4.6,4.6,0,0,0-.47,6.08c-6.3-.68-13.46-1.1-18.12,3.18-2.87,2.63-4.18,6.62-4.35,10.5a44.18,44.18,0,0,0,1.5,11.53c.62,2.83,1.7,6.17,4.51,6.89,2,.5,4.08-.63,5.38-2.21a22.73,22.73,0,0,0,2.83-5.42c1.44-3.27,3.61-6.58,7-7.63s7.9,1.63,7.32,5.15c-.37,2.23-2.44,3.71-4.14,5.21s-3.29,3.82-2.34,5.88c3.61-.24,7.5.34,10.19,2.76a8.48,8.48,0,0,1,1.45,10.2l-.18.34c-1.52,3.12-.88,5.85,1.92,7.68A119.2,119.2,0,0,0,348.13,237.06Z" transform="translate(-94.17 -106.05)"/></svg>