<svg id="Layer_1" data-name="Layer 1" xmlns="http://www.w3.org/2000/svg" xmlns:xlink="http://www.w3.org/1999/xlink" viewBox="0 0 1237.87 1003.55"><defs><style>.cls-1{fill:url(#linear-gradient);}.cls-2{fill:url(#linear-gradient-3);}.cls-3{fill:url(#linear-gradient-4);}.cls-4{fill:url(#linear-gradient-5);}.cls-5{fill:url(#linear-gradient-6);}.cls-6{fill:url(#linear-gradient-7);}.cls-7{fill:url(#linear-gradient-8);}.cls-8{fill:url(#linear-gradient-9);}.cls-9{fill:url(#linear-gradient-10);}.cls-10{fill:url(#linear-gradient-11);}.cls-11{fill:url(#linear-gradient-12);}.cls-12{fill:url(#linear-gradient-13);}.cls-13{fill:url(#linear-gradient-14);}.cls-14{fill:url(#linear-gradient-15);}.cls-15{fill:url(#linear-gradient-16);}.cls-16{fill:url(#linear-gradient-17);}.cls-17{fill:url(#linear-gradient-18);}.cls-18{fill:url(#linear-gradient-19);}.cls-19{fill:url(#linear-gradient-20);}.cls-20{fill:url(#linear-gradient-21);}.cls-21{fill:url(#linear-gradient-22);}.cls-22{fill:url(#linear-gradient-23);}.cls-23{fill:url(#linear-gradient-24);}.cls-24{fill:url(#linear-gradient-25);}.cls-25{fill:none;stroke:#d4387e;stroke-miterlimit:10;stroke-width:2px;isolation:isolate;opacity:0.8;}.cls-26{fill:#d4387e;}</style><linearGradient id="linear-gradient" x1="-6.26" y1="973.34" x2="17.5" y2="907.84" gradientTransform="matrix(84.52, 16.43, 4.12, -21.2, -3370.6, 20415.31)" gradientUnits="userSpaceOnUse"><stop offset="0" stop-color="#8e8bc3"/><stop offset="1" stop-color="#69c7ee"/></linearGradient><linearGradient id="linear-gradient-3" x1="2.66" y1="958.9" x2="3.11" y2="958.38" gradientTransform="matrix(1030.52, 0, 0, -1003.55, -2687.21, 962465.98)" xlink:href="#linear-gradient"/><linearGradient id="linear-gradient-4" x1="-0.58" y1="960.38" x2="-2.01" y2="960.84" gradientTransform="matrix(85, 0, 0, -52, 1045.51, 50625.22)" gradientUnits="userSpaceOnUse"><stop offset="0" stop-color="#abeca0"/><stop offset="1" stop-color="#81dfcb"/></linearGradient><linearGradient id="linear-gradient-5" x1="1.75" y1="958.78" x2="2.75" y2="958.7" gradientTransform="matrix(334.26, 0, 0, -504.45, -805.78, 484109.91)" gradientUnits="userSpaceOnUse"><stop offset="0" stop-color="#7fdece"/><stop offset="0.51" stop-color="#8be2bf"/><stop offset="1" stop-color="#abeca0"/></linearGradient><linearGradient id="linear-gradient-6" x1="-17.3" y1="969.58" x2="-16.3" y2="969.5" gradientTransform="matrix(20.07, 0, 0, -9.96, 332.47, 9885.41)" xlink:href="#linear-gradient-5"/><linearGradient id="linear-gradient-7" x1="-41.65" y1="980.49" x2="-40.65" y2="980.4" gradientTransform="matrix(9.12, 0, 0, -5, 390.79, 5125.77)" xlink:href="#linear-gradient-5"/><linearGradient id="linear-gradient-8" x1="-2.82" y1="963.08" x2="-1.82" y2="963" gradientTransform="matrix(70.37, 0, 0, -24.19, 244.36, 23522.72)" xlink:href="#linear-gradient-5"/><linearGradient id="linear-gradient-9" x1="-0.18" y1="959.98" x2="0.82" y2="959.9" gradientTransform="matrix(129.24, 0, 0, -76.77, 117.48, 73946.83)" xlink:href="#linear-gradient-5"/><linearGradient id="linear-gradient-10" x1="-13.45" y1="966.4" x2="-12.45" y2="966.32" gradientTransform="matrix(24.78, 0, 0, -13.97, 529.02, 13770.19)" xlink:href="#linear-gradient-5"/><linearGradient id="linear-gradient-11" x1="-10.13" y1="964.75" x2="-9.13" y2="964.67" gradientTransform="matrix(31.06, 0, 0, -17.7, 599.53, 17299.82)" xlink:href="#linear-gradient-5"/><linearGradient id="linear-gradient-12" x1="-10.5" y1="970.24" x2="-9.5" y2="970.16" gradientTransform="matrix(30.2, 0, 0, -9.4, 679.95, 9339.62)" xlink:href="#linear-gradient-5"/><linearGradient id="linear-gradient-13" x1="-11.47" y1="963.21" x2="-10.47" y2="963.13" gradientTransform="matrix(28.19, 0, 0, -23.59, 707.26, 22958.47)" xlink:href="#linear-gradient-5"/><linearGradient id="linear-gradient-14" x1="-12.13" y1="960.81" x2="-11.13" y2="960.73" gradientTransform="matrix(26.96, 0, 0, -48.53, 721.58, 47217.7)" xlink:href="#linear-gradient-5"/><linearGradient id="linear-gradient-15" x1="-3.16" y1="962.48" x2="-2.16" y2="962.39" gradientTransform="matrix(66.4, 0, 0, -27.93, 917.12, 27418.2)" xlink:href="#linear-gradient-5"/><linearGradient id="linear-gradient-16" x1="-1.73" y1="960.05" x2="-0.73" y2="959.97" gradientTransform="matrix(87.92, 6.17, 3.75, -53.41, -2796.91, 51894.21)" xlink:href="#linear-gradient-5"/><linearGradient id="linear-gradient-17" x1="-2.91" y1="969.25" x2="-1.91" y2="969.17" gradientTransform="matrix(69.24, 0, 0, -10.25, 817.42, 10484.65)" xlink:href="#linear-gradient-5"/><linearGradient id="linear-gradient-18" x1="-8.81" y1="961.37" x2="-7.81" y2="961.28" gradientTransform="matrix(34.54, 0, 0, -39.15, 929.38, 38148.34)" xlink:href="#linear-gradient-5"/><linearGradient id="linear-gradient-19" x1="-12.96" y1="960.88" x2="-11.96" y2="960.8" gradientTransform="matrix(25.54, 0, 0, -46.87, 991.28, 45510.18)" xlink:href="#linear-gradient-5"/><linearGradient id="linear-gradient-20" x1="-7.15" y1="961.11" x2="-6.15" y2="961.03" gradientTransform="matrix(40.21, 0, 0, -42.71, 864.71, 41566.82)" xlink:href="#linear-gradient-5"/><linearGradient id="linear-gradient-21" x1="-9.21" y1="960.44" x2="-8.21" y2="960.36" gradientTransform="matrix(33.42, 0, 0, -57.59, 986.28, 55685.43)" xlink:href="#linear-gradient-5"/><linearGradient id="linear-gradient-22" x1="1.2" y1="958.92" x2="2.2" y2="958.84" gradientTransform="matrix(231.09, 0, 0, -284.32, -92.78, 273140.46)" xlink:href="#linear-gradient-5"/><linearGradient id="linear-gradient-23" x1="2.19" y1="958.94" x2="3.19" y2="958.86" gradientTransform="matrix(523.7, 0, 0, -286.26, -939.78, 274852.17)" xlink:href="#linear-gradient-5"/><linearGradient id="linear-gradient-24" x1="-25.45" y1="964.92" x2="-24.45" y2="964.84" gradientTransform="matrix(14.32, 0, 0, -17.19, 585.31, 16901.75)" xlink:href="#linear-gradient-5"/><linearGradient id="linear-gradient-25" x1="-20.87" y1="962.41" x2="-19.87" y2="962.33" gradientTransform="matrix(17.07, 0, 0, -28.35, 591.99, 27587.92)" xlink:href="#linear-gradient-5"/></defs><path id="Path_76" data-name="Path 76" class="cls-1" d="M470.91,29.27c23.35,4.54,41.34,13,40.2,18.82s-21,6.92-44.32,2.38-41.34-12.95-40.2-18.81S447.57,24.73,470.91,29.27Z" transform="translate(209.8 46.72)"/><path id="Path_78" data-name="Path 78" class="cls-1" d="M470.91,29.27c23.35,4.54,41.34,13,40.2,18.82s-21,6.92-44.32,2.38-41.34-12.95-40.2-18.81S447.57,24.73,470.91,29.27Z" transform="translate(209.8 46.72)"/><path id="Path_79" data-name="Path 79" class="cls-2" d="M235.06-45.23c72,154.88,192.41,132.48,438.42,209S1116.8,449.13,986.87,516.67,884.72,524.2,688.3,609.23C573.88,658.75,526.89,833.14,414.79,799.37S29,1025.67.32,939.07c0,0-6.23-902.91,0-984.3C.59-48.67,234.73-45.07,235.06-45.23Z" transform="translate(209.8 46.72)"/><ellipse id="Ellipse_8" data-name="Ellipse 8" class="cls-3" cx="936.21" cy="673.5" rx="42.5" ry="26"/><g id="Group_3" data-name="Group 3"><path id="Path_50" data-name="Path 50" class="cls-4" d="M31.84,259.91a34.62,34.62,0,0,0-2.25-8.6,3.93,3.93,0,0,0-2-2.44,4.19,4.19,0,0,0-2,0l-10.09,1.54a3.9,3.9,0,0,0-2.3.9c-1.31,1.38,0,3.61-.06,5.51,0,2.14-1.95,3.88-4,4.46a15.08,15.08,0,0,1-6.38-.08L-11.3,259A23.21,23.21,0,0,0-.63,251.86c1.85-2.2,2.84-6.3.16-7.34a6.54,6.54,0,0,0-2.45-.2c-6.39.05-11.42-5.29-17.4-7.54A19.27,19.27,0,0,0-42,243.24l7.52.36a3.29,3.29,0,0,1,2,.54c1.65,1.35-.4,4-.17,6.07.3,2.75,4,3.34,6.71,3.61s6.25,2.52,4.93,4.95c-13.85,4.77-27.94-9.32-42.48-7.59-3.68.44-7.16,1.89-10.75,2.8-22,5.55-44.65-9.27-67.07-6.13a85.32,85.32,0,0,0-14.64,3.86c-3,1-6.24,2.09-8.45,4.41s-3.06,6.3-1,8.73a49.06,49.06,0,0,1-17.22-1.63,9.65,9.65,0,0,1,5,8.5,102.08,102.08,0,0,0-26.17,8,43.94,43.94,0,0,0,5.42,7.22l-11.45,7.35c3.87,1,5.87,6.25,3.62,9.54,4-1.78,6.49-6.4,10.78-7.33,2.81-.61,5.67.54,8.33,1.62s5.6,2.12,8.35,1.31,4.8-4.39,3-6.66a142.82,142.82,0,0,1,36.26-5.67,4.56,4.56,0,0,1,2.74.52c1.6,1.11,1.18,3.5,1.1,5.45s1.42,4.5,3.16,3.62c-2,1.77-.3,5.11,1.66,7s4.33,4.44,3.13,6.86c-.32.63-.85,1.14-1.15,1.78-.89,1.88.52,4.08,2.19,5.33s3.71,2.13,4.86,3.86.64,4.76-1.43,5L-129,319a15.47,15.47,0,0,0-4,7.53c6.24,5.11,7.18,15.48,2,21.62-2.66,3.13-6.46,5-9.77,7.48s-6.38,5.93-6.37,10.05c0,7.11-.57,13.72,2.1,20.32a312.26,312.26,0,0,0,17,35.44c1.68,3,3.85,6.3,7.26,6.82q-6.47-15.71-11.62-31.92c2.24,0,4.83.19,6.15,2,1.09,1.51.85,3.56,1.19,5.38a16.86,16.86,0,0,0,2.12,5l20.55,36.6c1.7,3,3.66,6.29,6.92,7.52,2.08.78,4.49.63,6.4,1.77,1.5.88,2.52,2.46,4.05,3.3,4.33,2.36,10.35-2.17,14.39.65,1.16.8,1.89,2.09,3,3,3.74,3.23,9.86,1.07,14.18,3.48,2.78,1.56,4.22,4.67,5.7,7.49,3.71,7.06,9.72,14,17.68,14.54,2.5.18,5.06-.3,7.5.26s4.85,2.69,4.46,5.16c-.67,4.25,1.42,8.9.86,13.16-1,7.76-12,11.16-13,18.93-.21,1.71.12,3.46-.29,5.13-.5,2-2,3.7-2.57,5.73-1,3.84,1.72,7.67,4.75,10.25s6.63,4.82,8.29,8.44c1.74,3.83.89,8.29,1.45,12.46,1.25,9.1,9.1,15.84,17.2,20.2,2.46,1.32,5.11,2.61,6.7,4.91,2.08,3,1.88,6.95,2.57,10.54,1.7,8.78,9.1,16,9.31,25,.15,6.36-3.39,12.12-5.5,18.12a42.3,42.3,0,0,0,3.45,35c1.58,2.66,3.47,5.18,4.59,8.07,2,5.15,1.34,11,3.18,16.23,2.43,6.9,9.11,12.59,8.47,19.87,3,6.3,9.72,9.39,16.45,11.26l12.06,3.36c2.31.64,4.73,1.29,7.08.82s4.6-2.41,4.53-4.81c-5.91-1.33-12-2.75-16.9-6.36s-8.21-10-6.36-15.8c.85-2.67,2.68-5.77.94-8-1-1.27-2.81-1.6-3.93-2.75-1.74-1.8-1.14-4.83.11-7s3.08-4.12,3.58-6.58a6.86,6.86,0,0,0-3.21-7.14,17.07,17.07,0,0,0,6-3.83c1.57-1.79,2.3-4.55,1.06-6.6,3.66.47,8,.7,10.4-2.11,1.92-2.24,1.79-5.59,1-8.44S62,655,62,652a155.72,155.72,0,0,0,25.36-.86,16.46,16.46,0,0,0-7.71-9.65c3.81-.65,7.28-5.21,8.48-8.88s.9-7.67.16-11.47a6.09,6.09,0,0,1-.12-3c.43-1.36,1.77-2.2,3-2.91l18.91-10.86a11.29,11.29,0,0,0,3-2.24c2-2.33,1.68-5.84.67-8.72s-2.64-5.6-3-8.63c-1.17-9.07,8.54-15.57,11.81-24.11,1.29-3.35,1.55-7,1.8-10.57.27-3.84.29-8.31-2.66-10.79s-7.25-1.84-10.21-4c-2.72-2-3.66-6-6.62-7.59-2.69-1.49-6.07-.54-9.07-1.24-5.27-1.23-8.59-7.31-14-7.87-3-.32-6.48,1.16-9-.6-2.2-1.56-2.29-4.7-2.7-7.36A20.53,20.53,0,0,0,53.57,494c-3.13-.5-6.54-.32-9.21-2s-3.93-5-6-7.42c-3.42-3.89-8.8-5.27-13.84-6.46L4,473.24c-3.64-.86-8.33-1.31-10.29,1.88A15,15,0,0,0-7.54,479a11.86,11.86,0,0,1-11.15,8.38,13.16,13.16,0,0,0-7.77-6c-2.08-.58-4.3-.64-6.29-1.5A8.83,8.83,0,0,1-36.81,468c.07-.15.15-.3.23-.44a11,11,0,0,0-1.88-13.23c-3.49-3.13-8.53-3.88-13.21-3.57-1.22-2.67.83-5.69,3-7.63s4.89-3.85,5.37-6.75c.76-4.56-5.06-8-9.48-6.67s-7.24,5.65-9.1,9.89c-1.07,2.42-2,5-3.67,7s-4.4,3.51-7,2.85c-3.64-.93-5.05-5.25-5.85-8.92-1.08-4.92-2.17-9.91-1.94-14.95s1.92-10.2,5.63-13.61c6.05-5.55,15.33-5,23.49-4.12-1.93-2.17-1.45-5.83.61-7.88a9,9,0,0,1,8.12-2,11.24,11.24,0,0,1,6.3,3.76c2.32,2.83,3,6.65,4.73,9.86s5.7,5.95,8.92,4.23c2.79-1.49,3.23-5.36,2.54-8.44s-2.17-6.08-1.92-9.23c.48-6,6.71-9.63,12.21-12.1S2.14,380.29,3,374.32a10.8,10.8,0,0,1,.65-3.42,6.73,6.73,0,0,1,2.46-2.31c16.05-10.6,32.36-21.34,50.7-27.13,1-.3,1.06,0,2-.2,1.36-.79.46-3-.84-3.84s-3-1.55-3.38-3.08c-.24-1.13.42-2.24.6-3.39.42-2.8-2.93-5.4-5.54-4.27-1.48-1.95,1.44-4.22,3.8-4.87a103.19,103.19,0,0,1,21.67-3.54,3.89,3.89,0,0,1,2.46.42c1.23.85,1.08,2.81.2,4s-2.23,2-3.31,3a9,9,0,0,0-2.35,9.1c3.83,1.95,8,3.95,12.22,3.27s8-5.45,6-9.25c-1.86-3.54-7.43-4.34-8.38-8.22-1.13-4.55,5.31-8.59,3.86-13-.64-1.95-2.58-3.1-4.07-4.5a12.21,12.21,0,0,1-2.67-13.55,15.43,15.43,0,0,1-13.53-4.23c-3.23-3.27-5.81-8.42-10.41-8.27-4.21.13-7.84,5-11.78,3.55-1-.37-2-1.12-2.93-.68a2.44,2.44,0,0,0-1.1,1.82c-1,4.78.73,10.24-1.88,14.38-2.84,4.5-9.41,5.13-12.86,9.19-1.86,2.2-2.59,5.17-4.31,7.5s-5.36,3.8-7.42,1.77a10.23,10.23,0,0,0-2.78-12.44,27.26,27.26,0,0,0-6.14-3,36.52,36.52,0,0,1-6.86-3.82,6.75,6.75,0,0,1-2.52-2.7,6.12,6.12,0,0,1,.17-4.26,17.43,17.43,0,0,1,13.87-11.5c2.74-.37,5.94-.24,7.75-2.33,1-1.11,1.47-2.78,2.86-3.23a4.21,4.21,0,0,1,2.64.33l10.25,3.6a7.15,7.15,0,0,0,3.65.6,2.47,2.47,0,0,0,2.14-2.6c-.33-1.7-2.95-2.51-2.71-4.23a2.88,2.88,0,0,1,.86-1.44,36.6,36.6,0,0,1,29.05-11.47c1.29,2.12-.75,4.64-2.45,6.45s-3.07,5-1,6.45a5.59,5.59,0,0,0,2.72.61,23.58,23.58,0,0,1,7.26,2.2q5.32,2.31,10.42,5.06c-.3-2.25-.59-4.61.26-6.71s3.27-3.75,5.39-2.93S90.8,270.7,93,271c2.9.33,4-3.94,2.83-6.59s-3.6-4.87-3.8-7.77c-.14-2,.61-4.39-1-5.58a4.24,4.24,0,0,0-1.85-.65l-39.09-7.18c-2.32-.42-5.67-.1-5.77,2.26-.06,1.32,1.12,2.62.6,3.83s-2.38,1.17-3.71,1.63c-2.07.71-3.1,3.16-2.9,5.33a14.93,14.93,0,0,0,2.44,6C38.23,261.17,34.38,261,31.84,259.91Z" transform="translate(209.8 46.72)"/><path id="Path_51" data-name="Path 51" class="cls-5" d="M.65,226.73a12.68,12.68,0,0,0-13.9,4.17c-.64.85-1.18,2-.64,2.93.77,1.32,2.74.8,4.19.33A10.49,10.49,0,0,1-3.08,234c1.37.47,2.58,1.29,4,1.74a4,4,0,0,0,4.06-.59c.94-1,1-2.45,1-3.79a3.07,3.07,0,0,0-.78-2.5,4,4,0,0,0-1.8-.53,6.23,6.23,0,0,1-3.62-2.11" transform="translate(209.8 46.72)"/><path id="Path_52" data-name="Path 52" class="cls-6" d="M14.75,222.81a3.21,3.21,0,0,0-3.39,3,3.05,3.05,0,0,0,.28,1.49,12.85,12.85,0,0,0,5.2.34,4.44,4.44,0,0,0,3.63-3.33,8.4,8.4,0,0,1-5.93-1.13" transform="translate(209.8 46.72)"/><path id="Path_53" data-name="Path 53" class="cls-7" d="M62,216.26a59.81,59.81,0,0,0-13.34,4.53,10,10,0,0,1,6.4,10.07,5.25,5.25,0,0,0,.06,2.49c.49,1.18,1.91,1.63,3.16,1.94a20.77,20.77,0,0,0,6.92.88,7.06,7.06,0,0,0,5.74-3.5,26.74,26.74,0,0,1,1.19-2.82c3-4.56,11.88,1,15.09-3.45,1.14-1.55,1-3.89,2.5-5.12a5.73,5.73,0,0,1,2.58-1,181.23,181.23,0,0,1,19.54-2.78c3.11-.27,7.17-1.39,7.19-4.51a54.11,54.11,0,0,0-34.54,4.65c-3.85,1.93-8.94,6-12.65,3.43-1.39-1-1.32-3.54-3.23-4.62S64.1,215.82,62,216.26Z" transform="translate(209.8 46.72)"/><path id="Path_54" data-name="Path 54" class="cls-8" d="M100.33,223.42l5.5,1.06a7.11,7.11,0,0,0-7.43,6.8,5.68,5.68,0,0,0,0,.92c5.14,1.72,10.76,0,16.18.27s11.73,4.1,10.81,9.45c-.28,1.62-1.22,3.23-.73,4.8.34,1.1,1.31,1.88,1.86,2.89,1.14,2.11.22,4.78-1.21,6.69s-3.38,3.45-4.64,5.49c-3.14,5.06-1.36,11.62.51,17.28a15.19,15.19,0,0,0,2.93,5.84c2.78,2.95,7.29,3.2,11.34,3.27,2.95,0,6.32-.1,8.18-2.39,2.44-3,.73-7.62,2.34-11.12,1.45-3.18,5.15-4.54,8.51-5.5,6.15-1.77,12.42-3.28,18.23-5.95,7.22-3.32,14-8.5,21.9-8.92,2.23-.12,4.51.14,6.65-.47s4.18-2.46,4-4.69c-.14-1.9-1.75-3.29-3-4.72s-2.24-3.64-1.09-5.15l20.8-3.89c-1.47-4-2.62-9.31.77-11.92,1.22-.94,2.86-1.32,3.9-2.46,1.77-1.95.88-5.29-1.17-6.95s-4.82-2-7.44-2.25c-9.12-.76-18.29-.26-27.42.24L137.07,215c-3.6.2-7.75-.1-11,1.12-2.79,1-4.77,3-8,3.62C112.15,221,105.66,220.11,100.33,223.42Z" transform="translate(209.8 46.72)"/><path id="Path_55" data-name="Path 55" class="cls-9" d="M198.81,266.87a2.17,2.17,0,0,0-1.6.37,2,2,0,0,0-.52,1.23,8.14,8.14,0,0,0,1.18,5.83,5.7,5.7,0,0,0,5.23,2.51c2.48-.32,4.3-2.43,6.58-3.46,3.5-1.59,18.4-4.06,8.1-9.63-3.55-1.92-5.85-.22-8.65,1a19.62,19.62,0,0,1-10.32,2.11Z" transform="translate(209.8 46.72)"/><path id="Path_56" data-name="Path 56" class="cls-10" d="M289.06,220.28a5.84,5.84,0,0,0-2.86,2.49,2.51,2.51,0,0,0,.94,3.33,3.74,3.74,0,0,0,1.4.23l4.9.14c2.07.07,4.67.5,5.23,2.51.41,1.49-.51,3.4.61,4.46a3.13,3.13,0,0,0,1.66.65,11.39,11.39,0,0,0,4.93.16c3.56-.95,1.69-3.13,2.81-5.06,1.71-3,1.42-1.17,4.44-2.87,2.23-1.25,5.12-3.52,3.25-6.71C313.14,214.05,293.84,217.89,289.06,220.28Z" transform="translate(209.8 46.72)"/><path id="Path_57" data-name="Path 57" class="cls-11" d="M385.62,217.48l-2.84.38c-6.41.86-12.85,1.72-19,3.64a31.56,31.56,0,0,0,8.33,2.05,26.27,26.27,0,0,1,4.67.66c2.72.81,5.47,2.91,8.1,1.83,1.63-.66,2.16-2.36,3.51-3.26.94-.62,4.48-1.63,4.87-2.26C396.45,215.45,388.08,217.16,385.62,217.48Z" transform="translate(209.8 46.72)"/><path id="Path_58" data-name="Path 58" class="cls-12" d="M398.1,230.4a53.4,53.4,0,0,0-10.49,7.67c-1.34,1.26-2.7,2.82-2.58,4.65.16,2.43,2.75,3.84,5,4.78l9.09,3.85c1.09-1.55.09-3.7-1.05-5.22s-2.49-3.29-2-5.13c.57-2.1,3.13-2.81,5.27-3.17,3.49-.59,12.91-.54,11.78-6.17C411.79,225,401.6,228.44,398.1,230.4Z" transform="translate(209.8 46.72)"/><path id="Path_59" data-name="Path 59" class="cls-13" d="M396.27,605.52c-.86,2.5-.95,5.46.55,7.64,1.68,2.45,5,3.37,7.94,2.75a14.35,14.35,0,0,0,7.38-4.75,25.55,25.55,0,0,0,4.24-6.5,50.75,50.75,0,0,0,3.14-11.5l2.82-14.8c.63-3.3.61-13.45-5.47-10.14-1.67.9-5.51,8-7.25,10-3.14,3.64-3.56,7.18-5.2,11.59C402.34,595.38,398.18,600,396.27,605.52Z" transform="translate(209.8 46.72)"/><path id="Path_63" data-name="Path 63" class="cls-14" d="M764.61,535.9a15.73,15.73,0,0,1-5.64.33c-3.12-.57-5.56-2.93-8.08-4.86A35.7,35.7,0,0,0,730,524.09c-6.86-.13-13.79,1.73-20.53.43.44,2.45,2.54,4.28,4.77,5.38s4.7,1.64,7,2.71a16.58,16.58,0,0,1,8,8.36c.73,1.69,1.18,3.53,2.28,5,2.24,3,6.49,3.68,10.23,3.43,4.89-.32,10-1.73,14.54.09a31.38,31.38,0,0,1,4.26,2.52l5-1.43s-1.87-5.32-1.83-8.3c3.27.3,12.69.19,12.18-5.37C775.46,532.21,767.42,535.4,764.61,535.9Z" transform="translate(209.8 46.72)"/><path id="Path_64" data-name="Path 64" class="cls-15" d="M736.27,585.73c-2.23-.21-4.47.3-6.71.21a31.69,31.69,0,0,0-4.36-.24c-4.49.41-7.55,4.87-11.84,6.23-2.61.83-5.45.43-8.14.94-6.11,1.16-10.3,6.56-14.82,10.84a50,50,0,0,1-26.37,13c-3.46.55-7.16.8-10,2.82-3.8,2.68-4.88,13.77-4.88,13.77s21.06-16,43.08-25.16,48.43-19.73,48.43-19.73S738.5,585.94,736.27,585.73Z" transform="translate(209.8 46.72)"/><path id="Path_65" data-name="Path 65" class="cls-16" d="M625.73,545.52c-1.77-.5-3.71-1-5.42-.27s-2.7,3.21-1.33,4.45c10.69-.42,21.45-.83,32,.62,12.21,1.67,24.3,5.81,36.56,4.6A185.26,185.26,0,0,0,666.25,550l-12-2.29a91.85,91.85,0,0,0-9.75-1.51C637.65,545.6,632.47,547.41,625.73,545.52Z" transform="translate(209.8 46.72)"/><path id="Path_66" data-name="Path 66" class="cls-17" d="M636.43,508.3c-.88-.08-2-.14-2.44.62s.06,1.69-.17,2.51c-.33,1.12-1.79,1.4-2.94,1.25s-2.4-.52-3.42,0a2.9,2.9,0,0,0-1.12,3.29,8.46,8.46,0,0,0,2,3.15,31.91,31.91,0,0,0,5.12,5.14c3.68,2.72,8.65,4,11,8a5.16,5.16,0,0,0,1.46,2c1.11.7,2.56.17,3.76-.38l4.19-1.91a4.72,4.72,0,0,0,2-1.34c1-1.3.37-3.14-.44-4.54s-1.83-2.85-1.66-4.46c.31-2.86,4-4,5.5-6.4s.54-5.64.71-8.54c.21-3.39,2.34-7.79-1.09-10.32-2.91-2.15-5.69-.17-7.78,2.21C646.61,503.55,644.53,509,636.43,508.3Z" transform="translate(209.8 46.72)"/><path id="Path_67" data-name="Path 67" class="cls-18" d="M661.88,457.69c1.43,2.74,4.41,4.38,6,7.05,1.7,2.89,1.5,6.63,3.34,9.43s5.67,4.4,6.73,7.68c1.15,3.57-1.47,7.91.62,11a4.63,4.63,0,0,0,6.49.88l.3-.26a5,5,0,0,0-.2-6.95c-1.24-1.13-3-1.61-4-2.93a6.11,6.11,0,0,1-1.05-2.54,16.74,16.74,0,0,1,.26-8,3.48,3.48,0,0,0,.2-2.09c-.46-1.35-2.29-1.45-3.57-2.07-2.91-1.42-2.84-5.53-2.33-8.73-.34,2.13-7.93-1.49-8.72-2.7-1.58-2.4-.72-7-1-9.67C661.44,449.47,660.13,454.34,661.88,457.69Z" transform="translate(209.8 46.72)"/><path id="Path_68" data-name="Path 68" class="cls-19" d="M585.44,499.85c-1.4-1.56-3.51-3.2-5.39-2.26-1.43.72-1.82,2.7-1.26,4.21a9.29,9.29,0,0,0,3.05,3.64c3.92,3.23,8.13,6.14,11.54,9.89,6.11,6.71,9.35,15.77,16,21.95a9,9,0,0,0,5,2.73c1.94.18,4.11-1.06,4.33-3,.19-1.59-.92-3-2-4.2-2.59-2.8-5.41-5.39-7.85-8.32a7.06,7.06,0,0,1-2-4.18c0-1.58,1.43-3.24,3-2.84-1.86-.48-3.24-3.58-6-4.16-2.28-.49-2.83.92-5.55-.24C593.13,510.86,589.07,503.92,585.44,499.85Z" transform="translate(209.8 46.72)"/><path id="Path_69" data-name="Path 69" class="cls-20" d="M707.17,347.21a42.88,42.88,0,0,1-4.37-1.56c-3.85-1.16-8.94,1.67-8.43,5.65.34,2.65,2.8,4.43,4.17,6.73,2,3.4,1.48,7.72.42,11.53a9.1,9.1,0,0,1-1.46,3.29,11.16,11.16,0,0,1-3.45,2.48,46.13,46.13,0,0,0-13.49,11.46,3.34,3.34,0,0,0-.81,1.53c-.18,1.35,1.17,2.33,1.93,3.45,1.7,2.49.47,5.84.64,8.85a2.51,2.51,0,0,0,1.06,2.2c1,.52,2.23-.36,2.79-1.36,1.84-3.34.45-8.69,3.9-10.3.66-.3,1.45-.44,1.88-1,.7-.91,0-2.26.38-3.35.53-1.63,2.76-1.7,4.47-1.63a25.55,25.55,0,0,0,8.73-1.16,5.88,5.88,0,0,0,2.89-1.67c1-1.29.94-3.12.73-4.76a64.39,64.39,0,0,0-7.62-23.25c3,.39,6.33.72,9-.86,1.47-.88,3.22-3.53,2.5-5.33C711.83,345.28,709.75,347.68,707.17,347.21Z" transform="translate(209.8 46.72)"/><path id="Path_70" data-name="Path 70" class="cls-21" d="M318.32,392.11a11.73,11.73,0,0,1,.09,5.88c-.64,1.87-2.65,3.44-4.54,2.86-1.47-.44-2.32-1.92-3.37-3.05-5.81-6.27-18.91-2.64-22.5-10.4-1.46-3.16-.47-7-1.47-10.3a9.16,9.16,0,0,0-9.28-6.31,19.14,19.14,0,0,0-5.34,1.6,134.9,134.9,0,0,1-35.4,8.86,28.59,28.59,0,0,0-6.8,1.24c-5,1.8-8.4,6.43-10.83,11.15s-4.21,9.82-7.46,14c-3.42,4.4-8.21,7.49-12.68,10.82a12.92,12.92,0,0,0-4.18,4.39c-1,2-.91,4.3-.84,6.51l.92,26.84c.11,3.45.26,7,1.81,10.12,1.93,3.86,5.74,6.38,8.38,9.79a19.16,19.16,0,0,1,4,12.25c-.06,1.78-.23,3.88,1.15,5a5.07,5.07,0,0,0,2.83.81l36.31,3c6.39.53,13.47,1.39,17.64,6.25,2,2.3,3.55,5.6,6.56,5.85,1.3.11,2.56-.43,3.85-.53,3.26-.26,6.13,2.22,7.94,4.95a21.9,21.9,0,0,1,3.52,14.08c-.3,3.11-1.26,6.14-1.47,9.25-.79,11.87,9.27,22.18,9.47,34.07.12,7-3.21,13.54-6.44,19.74,5.22,7.91.94,18.45,3,27.71,2,8.78,9.3,15.65,11.12,24.46.84,4,.88,9,4.44,11.08a10,10,0,0,0,5,1,66.12,66.12,0,0,0,30.16-6.86c4.4-2.19,9-5.44,9.73-10.29.62-3.91-1.37-8.29.65-11.7,2.38-4,8.48-3.7,12-6.78,5.68-5,1.25-14.56,3.55-21.77,2.07-6.49,9.18-9.93,12.71-15.75a27.89,27.89,0,0,0,3-8,114.43,114.43,0,0,0,3-20.43,121.76,121.76,0,0,1,.92-12.51c3.8-23.64,27.18-39.46,34.76-62.17.73-2.17,1.07-5.06-.86-6.29a5.53,5.53,0,0,0-3.67-.38l-16.74,2.11c-2.08.26-4.29.51-6.2-.36s-3.27-3.28-2.26-5.11c2.84-5.15-3-11.66-5.6-16.94A249.61,249.61,0,0,0,364,411.48a4.13,4.13,0,0,1-1.09-2.37l4.75.16c-1.6-5.76-4.25-12.06-9.84-14.16-3.15-1.19-6.64-.78-10-.59C338.17,395,327.85,393.58,318.32,392.11Z" transform="translate(209.8 46.72)"/><path id="Path_71" data-name="Path 71" class="cls-22" d="M347.81,262.44c2.52,2.67,5.34,5.51,9,6,6.44.82,11.06-5.84,14-11.62a5.67,5.67,0,0,0,5.92,5.25,11.78,11.78,0,0,0,4.46-1.74,87.82,87.82,0,0,1,41.58-10.75,4.5,4.5,0,0,1,3.43-4.94c2.95-.58,5.61,2,7,4.63s2.32,5.73,4.58,7.72,6.65,1.9,7.55-1-2-5.12-4.41-6.75-4.91-4.64-3.3-7c12.21-2.7,24.5-5.42,37-6a15.4,15.4,0,0,0,6.22-1.07c1.91-.94,3.43-3.06,2.91-5.12a14.11,14.11,0,0,1-14.72-5.55c17.35-1.43,35.79-2.65,51.16,5.51,1.84,4-7.56,7.25-5,10.82.8,1.14,2.41,1.27,3.8,1.3,10.68.2,21.42.4,32-1.22,3.86-.59,7.75-1.42,11.63-.94,6.45.8,12,5.1,18.32,6.51,2.58.57,5.48.59,7.66-.92s3.11-4.92,1.33-6.88c6-5.85,15.9-4.4,23.78-1.6s15.35,7.33,23.7,8c6,.45,12.05-1.16,18-.14,3.72.64,7.18,2.3,10.81,3.31,6.87,1.92,14.14,1.52,21.27,1.61a149.16,149.16,0,0,1,53.11,10.55,15.93,15.93,0,0,1,5.9,3.49c1.57,1.69,2.37,4.3,1.31,6.35l-17.47-2.55c1.65,3.24,5.91,3.79,9.36,4.91s7.05,4.94,5,7.92c-3.75-1.19-7.14,2.55-9,6s-4.2,7.58-8.12,7.79c-3.52.18-7.77-2.81-10.07-.14a68.71,68.71,0,0,1,8.09,12.93c2.27,4.72,3.88,10.66.82,14.91a3.88,3.88,0,0,1-2.07,1.6c-2.5.63-4.12-2.43-5.92-4.28-2.25-2.34-5.67-3-8.73-4.09s-6.28-3.25-6.52-6.49c-.15-2,.91-3.9,1.7-5.76a22.12,22.12,0,0,0,1.68-9.94c-.17-2.74-.94-5.58-2.9-7.49s-5.35-2.52-7.46-.77c-1,.82-1.78,2.12-3.05,2.17-2.26.09-4-3.85-5.81-2.51a6.15,6.15,0,0,1-.84,4.13c-5.42,4.72-13.75,2.72-20.74,4.39a39,39,0,0,0-9.46,4.13,6.09,6.09,0,0,0-2.7,2.27c-.87,1.7.09,3.87,1.63,5a12.82,12.82,0,0,0,5.37,1.83c8.51,1.62,17.16,4.11,23.88,9.59s11.14,14.51,9,22.92l-16.8-16.05q1,10.11,1.09,20.27a9.06,9.06,0,0,1-.53,3.9c-1.2,2.65-4.45,3.54-7.29,4.12a5.72,5.72,0,0,0-4.55,6.68c0,.21.1.43.16.64,1,3.29,3.54,5.86,5.84,8.42s4.58,5.47,4.88,8.9-2.29,7.3-5.72,7.06c-2.61-.18-4.54-2.51-5.65-4.87s-1.78-5-3.45-7c-5.05-6.08-16.41-3.48-20.93-10a10.25,10.25,0,0,0-2.12,9.75c2.11-1.32,5-.09,6.57,1.82s2.33,4.38,3.58,6.53c1.67,2.9,4.34,5.48,4.58,8.82a28.33,28.33,0,0,0,.06,3.8c.42,2,2.13,3.49,3.32,5.18,2.76,3.94,2.63,9.36.84,13.83s-5,8.21-8.15,11.84c-5.54,6.33-11.19,12.62-17.75,17.88-1.88,1.5-3.88,3-5,5.07s-1.23,5,.56,6.64c-1.28.06-3.58.7-4.86.76a114.27,114.27,0,0,1-.3-15.48c-5.06-2.43-10.51,4.08-9.86,9.66s4.69,10.05,7.56,14.88c2.1,3.52,3.67,7.64,3,11.69s-4.31,7.77-8.4,7.42c-6.5-.57-9.23-9.91-15.67-11a2.56,2.56,0,0,0-1.7.17c-1,.52-1.12,1.8-1.18,2.89-.26,5.35-.49,10.91,1.6,15.85,3.06,7.21,11,13.27,9.29,20.93-8.91-4.15-13.55-14.15-15.66-23.75s-2.46-19.7-6.23-28.79c-2.86,3.68-8.89.64-11.51-3.21-2.48-3.66-4-7.88-6.42-11.58s-6.1-7-10.5-7.22c-4.63-.22-8.64,3-12.17,6-2.9,2.46-5.88,5-7.57,8.43-2.47,5-1.83,10.81-2,16.35-.12,6-1.4,12.31-5.47,16.69s-11.62,5.92-16.12,2c-2.35-2.06-3.49-5.14-4.5-8.1A394.8,394.8,0,0,1,496,433c-.76,3.36-3.71,7.69-6.53,5.72a6,6,0,0,1-1.5-1.94c-5.25-8.91-15-14.26-24.83-17.47S443,414.56,433.23,411a75.69,75.69,0,0,1-15.52-7.73A12.21,12.21,0,0,0,417,415.8c2.16,3.82,7,6,11.23,4.7,2.16-.69,4-2.19,6.12-2.93s5-.38,6,1.69-.46,4.36.22,6.43c1,3.14,5.76,3.38,7.42,6.24,1.23,2.13.22,5-1.54,6.68s-4.11,2.66-6.26,3.85c-7,3.88-11.94,10.5-18,15.66s-14.7,8.91-22,5.6c1.73-8.77-8.72-15.2-10.64-23.93-.63-2.88-.3-5.93-1.21-8.73-1.31-4.05-4.9-6.84-7.85-9.92a39,39,0,0,1-10.68-28.31c.16-3.6.83-7.27,0-10.79s-3.73-6.92-7.34-6.76c-8.24.36-18.62,1-22.95-6-1.54-2.5-2.21-6.18,0-8.1,1.57-1.35,3.9-1.22,6-1L364,361.94c4.34.42,9,.78,12.77-1.5s5.34-8.3,1.89-11c-2.52-2-7-1.85-7.78-5-.61-2.59,2.25-5.52.71-7.68-1.11-1.55-3.6-1.12-5.11,0s-2.6,2.86-4.29,3.74c-3,1.54-6.5.07-9.69-.92s-7.46-1.08-9,1.88c-1.73,3.31,1.53,7.65-.18,11-2.27,4.39-9.95,1.89-13.14,5.67-3.66,4.33,2.49,10.78,1.26,16.32a10.16,10.16,0,0,1-10-.57,9.7,9.7,0,0,1-4.2-9.05c.3-2.49,1.6-5,.73-7.38-.7-1.9-2.61-3-4.39-4l-18-10c-1.67,3.11.44,7,3.09,9.29s6,4.1,7.71,7.17a9.4,9.4,0,0,1-3.54,12.4,2.18,2.18,0,0,1-1.79.31,2.51,2.51,0,0,1-1.16-1.56c-3.18-8.15-8-16.18-15.61-20.44s-18.62-3.38-23.63,3.79c-1.19,1.7-2,3.65-3,5.45-5.5,9.56-17.31,14.09-28.35,13.8a5.66,5.66,0,0,1-3.09-.73c-1.79-1.23-1.7-3.85-1.43-6l1.16-9.12c.23-1.84.57-3.86,2-5,2-1.62,5-.6,7.6-.64a9.61,9.61,0,0,0,8.73-6.74,10.83,10.83,0,0,0-3-10.79c-1.19-1.12-2.79-2.53-2.16-4a3.36,3.36,0,0,1,2.34-1.58c4.68-1.35,9.62-1.71,14.22-3.31s9.05-4.88,10.14-9.63c.34-1.45.49-3.21,1.79-3.93a5.31,5.31,0,0,1,2.08-.43,10.08,10.08,0,0,0,8.64-10.5c2.2-1.54,5.29-.41,7.42,1.23s4,3.8,6.61,4.5c4.83,1.32,9.51-3,14.52-3,2.1,0,4.28.74,6.27,0s3.21-2.72,4.75-4.2,4.25-2.38,5.67-.79l-1.21-9a17.65,17.65,0,0,0,14.37-2.6L321,282.23a3.33,3.33,0,0,1-1.47-.78c-1.14-1.23,0-3.14.92-4.53,2.21-3.34,2.59-8.84-1.06-10.5-2.49-1.13-5.34.23-7.73,1.56l-11.44,6.38c-.36,2.17,2.3,3.41,3.94,4.87a6.61,6.61,0,0,1-4.31,11.55,8.23,8.23,0,0,1,1.47,7l-7.7.55a3.35,3.35,0,0,1-2.5-.49c-.82-.73-.71-2-.9-3.1-.46-2.61-3-4.45-5.63-4.92s-5.29.13-7.88.73a4.67,4.67,0,0,1-3.39-.08,3.34,3.34,0,0,1-1.34-1.69c-1.14-2.75-.07-6,1.75-8.34s4.32-4.08,6.56-6a38.22,38.22,0,0,0,11.37-17.63c4.24-1.78,8.62-4.19,12.86-6a39.49,39.49,0,0,1,21.15-4.1L340,247c4.25.08,8.61.18,12.54,1.8s7.38,5.12,7.65,9.36a2.86,2.86,0,0,1-.92,2.63,3.47,3.47,0,0,1-1.81.41C353.46,261.31,351.77,262.3,347.81,262.44Z" transform="translate(209.8 46.72)"/><path id="Path_72" data-name="Path 72" class="cls-23" d="M233.45,307.41a4.21,4.21,0,0,0,1.14-4.23,7.87,7.87,0,0,0-8.13,1.54,13.91,13.91,0,0,0-2.18,2.88c-1.89,3.08-3.55,6.75-2.46,10.19a2.9,2.9,0,0,0,1.32,1.81,3.42,3.42,0,0,0,1.55.24,51.5,51.5,0,0,0,6.21-.38c1.27-.15,2.74-.51,3.23-1.69.64-1.55-.92-3.3-.46-4.91A5.38,5.38,0,0,1,235,311a2.53,2.53,0,0,0,.79-2.11c-.19-.76-1.35-1.19-1.76-.53" transform="translate(209.8 46.72)"/><path id="Path_73" data-name="Path 73" class="cls-24" d="M244.22,293.44a17.48,17.48,0,0,0-5.63-.35,2.49,2.49,0,0,0-1.2.27,2,2,0,0,0-.74,1.07,5.31,5.31,0,0,0,3.1,6.52,7.09,7.09,0,0,1,1.92.77c1.59,1.24.57,3.77.88,5.76.33,2.24,2.5,4.11,2.1,6.34-.31,1.76-2.19,3.15-1.88,4.9s2.65,2.4,4.51,2.54a5.66,5.66,0,0,0,3.2-.36,5,5,0,0,0,2-2.92,18.79,18.79,0,0,0,.94-7.06,6.66,6.66,0,0,0-.8-3.11,17.1,17.1,0,0,0-1.86-2.13C247.22,301.54,251,295.35,244.22,293.44Z" transform="translate(209.8 46.72)"/><path id="Path_74" data-name="Path 74" class="cls-25" d="M713.28,618.48S440.08,461.66,322.46,491.37c0,0-249.27,26.82-278.15,85.84,0,0-79.24-247.61-108.13-255.87" transform="translate(209.8 46.72)"/><path id="Path_75" data-name="Path 75" class="cls-25" d="M44.31,577.21c45.8-122.16,458.5-257.52,458.5-257.52-58.6,14.86-180.35,171.68-180.35,171.68S64.94,304-63.82,321.34c0,0,567,18.57,777.1,297.14" transform="translate(209.8 46.72)"/><circle id="Ellipse_1" data-name="Ellipse 1" class="cls-26" cx="145.98" cy="368.06" r="11.97"/><circle id="Ellipse_2" data-name="Ellipse 2" class="cls-26" cx="254.1" cy="623.93" r="11.97"/><circle id="Ellipse_3" data-name="Ellipse 3" class="cls-26" cx="710.6" cy="366.41" r="11.97"/><circle id="Ellipse_4" data-name="Ellipse 4" class="cls-26" cx="923.08" cy="665.2" r="11.97"/><circle id="Ellipse_5" data-name="Ellipse 5" class="cls-26" cx="532.26" cy="538.09" r="11.97"/></g><path id="Path_80" data-name="Path 80" class="cls-1" d="M470.91,29.27c23.35,4.54,41.34,13,40.2,18.82s-21,6.92-44.32,2.38-41.34-12.95-40.2-18.81S447.57,24.73,470.91,29.27Z" transform="translate(209.8 46.72)"/></svg>