<svg id="leaderboard" xmlns="http://www.w3.org/2000/svg" xmlns:xlink="http://www.w3.org/1999/xlink" viewBox="0 0 2210.9 323.18"><defs><style>.cls-1{fill:url(#linear-gradient);}.cls-2{fill:url(#linear-gradient-2);}.cls-3{fill:url(#linear-gradient-3);}.cls-4{fill:url(#linear-gradient-4);}</style><linearGradient id="linear-gradient" x1="-93.81" y1="1001.33" x2="-93.81" y2="1000.33" gradientTransform="matrix(1920, 0, 0, -323.18, 180580, 323611.17)" gradientUnits="userSpaceOnUse"><stop offset="0" stop-color="#8e8bc3"/><stop offset="1" stop-color="#69c7ee"/></linearGradient><linearGradient id="linear-gradient-2" x1="-95.24" y1="1000.93" x2="-94.24" y2="1000.84" gradientTransform="matrix(489.11, 0, 0, -286.18, 46613.71, 286574.25)" gradientUnits="userSpaceOnUse"><stop offset="0" stop-color="#7fdece"/><stop offset="0.51" stop-color="#8be2bf"/><stop offset="1" stop-color="#abeca0"/></linearGradient><linearGradient id="linear-gradient-3" x1="-95.27" y1="1000.95" x2="-94.27" y2="1000.86" gradientTransform="matrix(477.8, 0, 0, -265.15, 46697.23, 265522.25)" xlink:href="#linear-gradient-2"/><linearGradient id="linear-gradient-4" x1="-98.22" y1="1001.54" x2="-97.22" y2="1001.46" gradientTransform="matrix(140.75, 0, 0, -107.04, 15400.29, 107252.57)" xlink:href="#linear-gradient-2"/></defs><path id="Path_91" data-name="Path 91" class="cls-1" d="M-488.66-.24h1920v313s-156.17-41.93-280.3-41.93c-72,0-181.46,42.5-328.6,42.5s-255.85-64.87-390.8-64.87c-66.64,0-330.88,74.48-449,74.48-67.32,0-177.76-49.85-296.25-52.5s-175.06,42.32-175.06,42.32Z" transform="translate(488.66 0.24)"/><g id="Group_11" data-name="Group 11"><path id="Path_50" data-name="Path 50" class="cls-2" d="M89.33-.21S92.77,26.47,82,39.94C76.45,46.82,68.61,51,61.76,56.37s-13.19,13-13.17,22.06c0,15.62-1.17,30.12,4.34,44.6a706.63,706.63,0,0,0,35.13,77.82c3.47,6.6,8,13.84,15,15q-13.35-34.5-24-70.07c4.64,0,10,.41,12.72,4.4,2.25,3.3,1.76,7.8,2.46,11.8a37.72,37.72,0,0,0,4.4,11l44.46,81.26L227.53,286l24.89-6.42s3.4-15-6.26-14.29c-2.53-5.86,1.7-12.48,6.26-16.74s10.1-8.46,11.1-14.83c1.57-10-10.47-17.62-19.6-14.63s-15,12.41-18.83,21.7c-2.21,5.33-4.09,10.94-7.58,15.44s-9.1,7.71-14.42,6.27c-7.52-2.05-10.43-11.54-12.09-19.59-2.24-10.81-4.48-21.76-4-32.81s4-22.4,11.65-29.89c12.5-12.19,31.69-11,48.57-9.05-4-4.77-3-12.81,1.26-17.3a17.76,17.76,0,0,1,16.79-4.38,23,23,0,0,1,13,8.26c4.8,6.21,6.16,14.59,9.78,21.64s11.78,13.06,18.45,9.28c5.76-3.27,6.68-11.75,5.24-18.52s-4.48-13.35-4-20.26c1-13.2,13.87-21.14,25.24-26.57s24.38-12.74,26.18-25.84a24.64,24.64,0,0,1,1.35-7.51,14.16,14.16,0,0,1,5.09-5.08C398.81,61.57,432.54,38,470.45,25.29c2-.67,2.2.07,4.21-.45,2.81-1.73.95-6.5-1.75-8.43s-6.3-3.4-7-6.77c-.5-2.48.88-4.91,1.23-7.42.88-6.16,33,1.41,35,8.51,7.92,4.28,16.51,8.67,25.28,7.17s10.18-18,10.18-18Z" transform="translate(488.66 0.24)"/><path id="Path_70" data-name="Path 70" class="cls-3" d="M1208.57.05c-3.55,2.44-9.13,10.61-11.26,14.5-2,4.36-1.89,9.44-1.73,14.29l1.89,58.94c.24,7.58.54,15.43,3.74,22.21,4,8.47,11.87,14,17.34,21.5a43.92,43.92,0,0,1,8.23,26.9c-.12,3.9-.49,8.52,2.38,11a10.07,10.07,0,0,0,5.85,1.79l75.07,6.52c13.21,1.15,27.85,3,36.47,13.72,4.07,5,7.34,12.29,13.57,12.84,2.67.23,5.28-.94,8-1.16,6.75-.57,12.67,4.87,16.41,10.86a50.48,50.48,0,0,1,7.29,30.91c-.61,6.83-1.64,13.23-2.07,20.07,80.17-16.55,104-11.59,125.28-10.51s84.14,9.07,84.14,9.07,57.31-76.27,73-126.12c1.5-4.76,2.2-11.1-1.79-13.8a10.77,10.77,0,0,0-7.6-.84l-34.6,4.63c-4.3.57-8.85,1.11-12.8-.78s-6.78-7.2-4.68-11.23c5.88-11.31-6.22-25.59-11.59-37.18C1584.6,47,1564.13,27.77,1544.38,0,1545,.06,1208.59-.61,1208.57.05Z" transform="translate(488.66 0.24)"/><path id="Path_71" data-name="Path 71" class="cls-4" d="M1721.11,0s-16.74,16.26-15.35,20.79c2.12,6.9,11.92,7.44,15.35,13.72,2.55,4.67.45,10.87-3.19,14.65s-8.5,5.83-12.94,8.46c-14.43,8.52-24.69,23.06-37.29,34.37s-30.39,19.57-45.41,12.31c3.58-19.25-18-33.39-22-52.56-1.3-6.31-.63-13-2.5-19.16-2.7-8.9-16.29-32.59-16.29-32.59Z" transform="translate(488.66 0.24)"/></g></svg>