<svg id="Layer_1" data-name="Layer 1" xmlns="http://www.w3.org/2000/svg" xmlns:xlink="http://www.w3.org/1999/xlink" viewBox="0 0 383.53 334"><defs><style>.cls-1{fill:url(#linear-gradient);}.cls-2{fill:url(#linear-gradient-2);}</style><linearGradient id="linear-gradient" x1="-300.43" y1="675.39" x2="-300.43" y2="673.32" gradientTransform="matrix(383.53, 0, 0, -334, 115415.67, 225221.28)" gradientUnits="userSpaceOnUse"><stop offset="0" stop-color="#8c8dc5"/><stop offset="1" stop-color="#6ac4ec"/></linearGradient><linearGradient id="linear-gradient-2" x1="-301.7" y1="674.21" x2="-301.7" y2="672.68" gradientTransform="matrix(161.69, 0, 0, -215.58, 48972.19, 145358.05)" gradientUnits="userSpaceOnUse"><stop offset="0" stop-color="#7fdece"/><stop offset="1" stop-color="#abeca0"/></linearGradient></defs><rect id="Rectangle_6" data-name="Rectangle 6" class="cls-1" width="383.53" height="334" rx="25"/><path id="monument-solid" class="cls-2" d="M264.37,255.56H116.15a6.73,6.73,0,0,0-6.73,6.74h0v13.47a6.73,6.73,0,0,0,6.73,6.74H264.37a6.73,6.73,0,0,0,6.74-6.73h0V262.3a6.74,6.74,0,0,0-6.74-6.74ZM231.16,109.34a13.4,13.4,0,0,0-3.87-8.18L195,68.9a6.73,6.73,0,0,0-9.52,0h0l-32.26,32.26a13.47,13.47,0,0,0-3.88,8.18l-13,132.75h107.8Zm-20.69,86.94a5.8,5.8,0,0,1-5.39,5.39H175.44a5.8,5.8,0,0,1-5.39-5.39V180.11a5.8,5.8,0,0,1,5.39-5.39h29.64a5.8,5.8,0,0,1,5.39,5.39Z" transform="translate(-7.24 -7.72)"/></svg>