<svg xmlns="http://www.w3.org/2000/svg" xmlns:xlink="http://www.w3.org/1999/xlink" viewBox="0 0 384.04 334.22"><defs><style>.cls-1{fill:url(#linear-gradient);}.cls-2{fill:url(#linear-gradient-2);}.cls-3{fill:url(#linear-gradient-3);}.cls-4{fill:url(#linear-gradient-4);}.cls-5{fill:url(#linear-gradient-5);}.cls-6{fill:url(#linear-gradient-6);}.cls-7{fill:url(#linear-gradient-7);}.cls-8{fill:url(#linear-gradient-8);}.cls-9{fill:url(#linear-gradient-9);}.cls-10{fill:url(#linear-gradient-10);}.cls-11{fill:url(#linear-gradient-11);}.cls-12{fill:url(#linear-gradient-12);}.cls-13{fill:url(#linear-gradient-13);}.cls-14{fill:url(#linear-gradient-14);}.cls-15{fill:url(#linear-gradient-15);}.cls-16{fill:url(#linear-gradient-16);}.cls-17{fill:url(#linear-gradient-17);}.cls-18{fill:url(#linear-gradient-18);}.cls-19{fill:url(#linear-gradient-19);}.cls-20{fill:url(#linear-gradient-20);}.cls-21{fill:url(#linear-gradient-21);}.cls-22{fill:none;stroke:#d4387e;stroke-miterlimit:10;stroke-width:2px;isolation:isolate;opacity:0.8;}.cls-23{fill:#d4387e;}</style><linearGradient id="linear-gradient" x1="-300.43" y1="675.39" x2="-300.43" y2="673.32" gradientTransform="matrix(383.53, 0, 0, -334, 115415.67, 225221.5)" gradientUnits="userSpaceOnUse"><stop offset="0" stop-color="#8c8dc5"/><stop offset="1" stop-color="#6ac4ec"/></linearGradient><linearGradient id="linear-gradient-2" x1="-301.7" y1="674.21" x2="-301.7" y2="672.68" gradientTransform="matrix(161.69, 0, 0, -215.58, 48972.19, 145358.05)" gradientUnits="userSpaceOnUse"><stop offset="0" stop-color="#7fdece"/><stop offset="1" stop-color="#abeca0"/></linearGradient><linearGradient id="linear-gradient-3" x1="-299.2" y1="675.4" x2="-299.2" y2="673.33" gradientTransform="matrix(383.53, 0, 0, -334, 114946.66, 225225.06)" xlink:href="#linear-gradient"/><linearGradient id="linear-gradient-4" x1="-299.26" y1="673.6" x2="-298.26" y2="673.52" gradientTransform="matrix(145.71, 0, 0, -233.49, 43605.99, 157456.78)" gradientUnits="userSpaceOnUse"><stop offset="0" stop-color="#7fdece"/><stop offset="0.51" stop-color="#8be2bf"/><stop offset="1" stop-color="#abeca0"/></linearGradient><linearGradient id="linear-gradient-5" x1="-287.03" y1="625.7" x2="-286.03" y2="625.62" gradientTransform="matrix(8.73, 0, 0, -4.6, 2598.97, 2953.51)" xlink:href="#linear-gradient-4"/><linearGradient id="linear-gradient-6" x1="-271.48" y1="577.3" x2="-270.48" y2="577.22" gradientTransform="matrix(3.98, 0, 0, -2.31, 1183.33, 1405.59)" xlink:href="#linear-gradient-4"/><linearGradient id="linear-gradient-7" x1="-296.34" y1="654.46" x2="-295.34" y2="654.38" gradientTransform="matrix(30.68, 0, 0, -11.2, 9211.58, 7397.97)" xlink:href="#linear-gradient-4"/><linearGradient id="linear-gradient-8" x1="-298.02" y1="668.22" x2="-297.02" y2="668.14" gradientTransform="matrix(56.31, 0, 0, -35.54, 16921.95, 23825.08)" xlink:href="#linear-gradient-4"/><linearGradient id="linear-gradient-9" x1="-289.53" y1="639.75" x2="-288.53" y2="639.66" gradientTransform="matrix(10.8, 0, 0, -6.46, 3312.45, 4226.02)" xlink:href="#linear-gradient-4"/><linearGradient id="linear-gradient-10" x1="-291.65" y1="647.1" x2="-290.65" y2="647.02" gradientTransform="matrix(13.54, 0, 0, -8.19, 4173.59, 5370.91)" xlink:href="#linear-gradient-4"/><linearGradient id="linear-gradient-11" x1="-291.41" y1="622.88" x2="-290.41" y2="622.8" gradientTransform="matrix(13.17, 0, 0, -4.35, 4094.01, 2778.78)" xlink:href="#linear-gradient-4"/><linearGradient id="linear-gradient-12" x1="-290.79" y1="653.95" x2="-289.79" y2="653.87" gradientTransform="matrix(12.29, 0, 0, -10.92, 3839.35, 7216.13)" xlink:href="#linear-gradient-4"/><linearGradient id="linear-gradient-13" x1="-290.38" y1="664.54" x2="-289.38" y2="664.46" gradientTransform="matrix(11.76, 0, 0, -22.49, 3685.35, 15181.45)" xlink:href="#linear-gradient-4"/><linearGradient id="linear-gradient-14" x1="-295" y1="625.76" x2="-294" y2="625.68" gradientTransform="matrix(22.56, 0, 0, -4.61, 7023.31, 3105.6)" xlink:href="#linear-gradient-4"/><linearGradient id="linear-gradient-15" x1="-292.5" y1="662.15" x2="-291.5" y2="662.07" gradientTransform="matrix(15.06, 0, 0, -18.13, 4776.7, 12206.36)" xlink:href="#linear-gradient-4"/><linearGradient id="linear-gradient-16" x1="-270.91" y1="654.3" x2="-269.91" y2="654.22" gradientTransform="matrix(3.9, 0, 0, -11.1, 1443.12, 7443.76)" xlink:href="#linear-gradient-4"/><linearGradient id="linear-gradient-17" x1="-293.56" y1="663.17" x2="-292.56" y2="663.09" gradientTransform="matrix(17.54, 0, 0, -19.78, 5499.13, 13319.96)" xlink:href="#linear-gradient-4"/><linearGradient id="linear-gradient-18" x1="-298.91" y1="672.83" x2="-297.91" y2="672.75" gradientTransform="matrix(100.76, 0, 0, -131.61, 30298.59, 88750.15)" xlink:href="#linear-gradient-4"/><linearGradient id="linear-gradient-19" x1="-299.45" y1="672.86" x2="-298.45" y2="672.78" gradientTransform="matrix(194.37, 0, 0, -132.51, 58394.89, 89287.23)" xlink:href="#linear-gradient-4"/><linearGradient id="linear-gradient-20" x1="-281.85" y1="646.27" x2="-280.85" y2="646.19" gradientTransform="matrix(6.24, 0, 0, -7.96, 1954.7, 5252.19)" xlink:href="#linear-gradient-4"/><linearGradient id="linear-gradient-21" x1="-284.78" y1="657.4" x2="-283.78" y2="657.32" gradientTransform="matrix(7.44, 0, 0, -13.12, 2321.96, 8735.58)" xlink:href="#linear-gradient-4"/></defs><g id="Layer_1" data-name="Layer 1"><rect id="Rectangle_6" data-name="Rectangle 6" class="cls-1" y="0.22" width="383.53" height="334" rx="25"/><path id="monument-solid" class="cls-2" d="M264.37,255.56H116.15a6.73,6.73,0,0,0-6.73,6.74h0v13.47a6.73,6.73,0,0,0,6.73,6.74H264.37a6.73,6.73,0,0,0,6.74-6.73h0V262.3a6.74,6.74,0,0,0-6.74-6.74ZM231.16,109.34a13.4,13.4,0,0,0-3.87-8.18L195,68.9a6.73,6.73,0,0,0-9.52,0h0l-32.26,32.26a13.47,13.47,0,0,0-3.88,8.18l-13,132.75h107.8Zm-20.69,86.94a5.8,5.8,0,0,1-5.39,5.39H175.44a5.8,5.8,0,0,1-5.39-5.39V180.11a5.8,5.8,0,0,1,5.39-5.39h29.64a5.8,5.8,0,0,1,5.39,5.39Z" transform="translate(-7.24 -7.5)"/></g><g id="Layer_2" data-name="Layer 2"><rect id="Rectangle_4" data-name="Rectangle 4" class="cls-3" x="0.31" width="383.53" height="334" rx="25"/><g id="Group_8" data-name="Group 8"><path id="Path_50" data-name="Path 50" class="cls-4" d="M112.89,86.2a16.63,16.63,0,0,0-1-4,1.31,1.31,0,0,0-1.72-1.14l-4.4.72a1.68,1.68,0,0,0-1,.41c-.57.64,0,1.67,0,2.55A2.36,2.36,0,0,1,103,86.82a6.21,6.21,0,0,1-2.78,0l-6.15-1a10.14,10.14,0,0,0,4.65-3.3c.81-1,1.24-2.92.07-3.4A2.59,2.59,0,0,0,97.74,79c-2.79,0-5-2.45-7.59-3.49a8.09,8.09,0,0,0-9.44,3l3.28.16a1.41,1.41,0,0,1,.87.25c.72.63-.17,1.83-.07,2.81.13,1.28,1.73,1.55,2.93,1.68s2.72,1.16,2.14,2.29c-6,2.2-12.18-4.32-18.51-3.52a36.19,36.19,0,0,0-4.69,1.3C57.09,86,47.2,79.16,37.42,80.61A35.36,35.36,0,0,0,31,82.4a8.51,8.51,0,0,0-3.69,2,3.28,3.28,0,0,0-.41,4,20.27,20.27,0,0,1-7.51-.76,4.51,4.51,0,0,1,2.16,3.94,42.25,42.25,0,0,0-11.4,3.69,20,20,0,0,0,2.36,3.34l-5,3.4a3.08,3.08,0,0,1,1.77,4,2.39,2.39,0,0,1-.2.43c1.75-.83,2.84-3,4.7-3.4a6,6,0,0,1,3.64.75,5.36,5.36,0,0,0,3.64.61c1.2-.38,2.09-2,1.32-3.09a58.84,58.84,0,0,1,15.8-2.62,1.92,1.92,0,0,1,1.2.24c.7.51.52,1.62.48,2.52s.62,2.09,1.38,1.68c-.89.82-.13,2.36.72,3.23s1.89,2,1.36,3.17c-.13.29-.36.53-.5.82a2.25,2.25,0,0,0,1,2.47A8.27,8.27,0,0,1,46,114.68c.5.8.27,2.2-.63,2.32l-2.56-3.46A7.12,7.12,0,0,0,41,117a7.64,7.64,0,0,1,.85,10c-1.16,1.45-2.82,2.33-4.26,3.47s-2.78,2.74-2.78,4.65c0,3.29-.25,6.35.92,9.4A147.43,147.43,0,0,0,43.16,161c.73,1.39,1.68,2.92,3.17,3.16q-2.82-7.27-5.07-14.78a3.09,3.09,0,0,1,2.68.93,6.28,6.28,0,0,1,.52,2.49,7.89,7.89,0,0,0,.93,2.31l9,16.95c.75,1.4,1.6,2.91,3,3.48.91.36,2,.3,2.79.82.66.41,1.1,1.14,1.76,1.52,1.89,1.1,4.52-1,6.28.3.45.45.88.91,1.29,1.4,1.63,1.5,4.3.5,6.18,1.61,1.21.72,1.84,2.16,2.49,3.47,1.62,3.26,4.24,6.47,7.71,6.73a19.71,19.71,0,0,1,3.26.12,2.37,2.37,0,0,1,1.94,2.39c-.29,2,.62,4.12.38,6.09-.45,3.59-5.25,5.17-5.66,8.77a20.91,20.91,0,0,1-.13,2.37c-.21.94-.88,1.71-1.12,2.65-.45,1.78.75,3.55,2.07,4.75s2.89,2.23,3.61,3.91.39,3.83.64,5.76c.54,4.22,4,7.34,7.49,9.35a7.87,7.87,0,0,1,2.93,2.27c.91,1.39.81,3.22,1.12,4.88.74,4.07,4,7.42,4,11.56.07,2.94-1.47,5.61-2.4,8.38a20.69,20.69,0,0,0,1.5,16.23,25.74,25.74,0,0,1,2,3.73c.87,2.39.59,5.1,1.39,7.52,1.06,3.19,4,5.83,3.69,9.2,1.32,2.91,4.24,4.34,7.18,5.21l5.25,1.56a6.37,6.37,0,0,0,3.09.38,2.41,2.41,0,0,0,2-2.23c-2.57-.62-5.24-1.28-7.36-2.94s-3.58-4.64-2.78-7.32c.38-1.24,1.17-2.67.42-3.69-.44-.59-1.23-.74-1.72-1.28-.76-.83-.5-2.23,0-3.24a11.09,11.09,0,0,0,1.56-3,3.23,3.23,0,0,0-1.4-3.3,7.4,7.4,0,0,0,2.6-1.78,2.8,2.8,0,0,0,.46-3.05c1.6.21,3.49.32,4.54-1a4.53,4.53,0,0,0,.45-3.91,17.34,17.34,0,0,1-.91-4,62.76,62.76,0,0,0,11-.4,7.56,7.56,0,0,0-3.36-4.47c1.66-.3,3.18-2.41,3.7-4.11a11.17,11.17,0,0,0,.07-5.3,3.11,3.11,0,0,1,0-1.39,2.62,2.62,0,0,1,1.31-1.35l8.25-5a4.94,4.94,0,0,0,1.32-1,4.36,4.36,0,0,0,.29-4,21.8,21.8,0,0,1-1.32-4c-.51-4.2,3.72-7.21,5.15-11.16a18,18,0,0,0,.79-4.89c.11-1.78.12-3.85-1.17-5s-3.16-.85-4.45-1.87-1.59-2.76-2.88-3.52-2.65-.25-3.95-.57c-2.3-.57-3.75-3.38-6.1-3.65-1.32-.14-2.82.55-3.91-.27s-1-2.18-1.17-3.4a9.25,9.25,0,0,0-7.23-7.7c-1.37-.24-2.85-.15-4-.95s-1.71-2.31-2.64-3.43c-1.49-1.8-3.83-2.44-6-3L100.73,185c-1.58-.4-3.63-.61-4.48.87a7.23,7.23,0,0,0-.53,1.77,5.22,5.22,0,0,1-4.86,3.88,5.82,5.82,0,0,0-3.39-2.78,20,20,0,0,1-2.74-.7,4,4,0,0,1-2-2.45,4.29,4.29,0,0,1,.31-3.22,5.32,5.32,0,0,0-.82-6.12,7.45,7.45,0,0,0-5.76-1.65c-.53-1.24.36-2.64,1.32-3.54s2.13-1.78,2.34-3.12c.33-2.11-2.2-3.72-4.13-3.09s-3.16,2.62-4,4.58a14,14,0,0,1-1.6,3.25,3.05,3.05,0,0,1-3,1.32c-1.59-.43-2.2-2.43-2.55-4.13a28.24,28.24,0,0,1-.85-6.91,9.35,9.35,0,0,1,2.46-6.3c2.64-2.58,6.68-2.32,10.24-1.91a2.89,2.89,0,0,1,.27-3.65,3.78,3.78,0,0,1,3.54-.93,4.87,4.87,0,0,1,2.75,1.74c1,1.31,1.3,3.08,2.06,4.56s2.49,2.76,3.89,2c1.22-.69,1.41-2.48,1.11-3.9s-.94-2.81-.83-4.27c.2-2.78,2.92-4.46,5.32-5.6s5.14-2.69,5.52-5.45a5,5,0,0,1,.28-1.58,3,3,0,0,1,1.07-1.07c7-4.91,14.1-9.88,22.1-12.56.42-.14.47,0,.89-.1.6-.36.2-1.37-.37-1.77s-1.33-.72-1.47-1.43a5,5,0,0,1,.26-1.57,1.87,1.87,0,0,0-1.66-2,2,2,0,0,0-.76.07c-.64-.9.63-2,1.66-2.25a42.72,42.72,0,0,1,9.45-1.64,1.6,1.6,0,0,1,1.07.2,1.42,1.42,0,0,1,.09,1.86,10,10,0,0,1-1.45,1.39,4.39,4.39,0,0,0-1,4.22c1.67.9,3.48,1.83,5.33,1.51s3.49-2.52,2.62-4.28-3.24-2-3.66-3.81c-.49-2.1,2.32-4,1.69-6-.28-.9-1.13-1.44-1.78-2.09a5.9,5.9,0,0,1-1.16-6.27,6.44,6.44,0,0,1-5.9-2c-1.41-1.51-2.54-3.89-4.54-3.83-1.84.07-3.42,2.34-5.14,1.65-.42-.17-.87-.52-1.28-.32a1.15,1.15,0,0,0-.47.84c-.44,2.22.31,4.74-.83,6.66-1.23,2.08-4.1,2.37-5.6,4.25-.81,1-1.13,2.4-1.88,3.47s-2.33,1.76-3.23.83a4.93,4.93,0,0,0-1.21-5.76,11.76,11.76,0,0,0-2.68-1.39,15.28,15.28,0,0,1-3-1.77,2.93,2.93,0,0,1-1.1-1.24,3.05,3.05,0,0,1,.07-2,7.73,7.73,0,0,1,6-5.32c1.2-.17,2.59-.11,3.38-1.08.42-.51.64-1.29,1.25-1.49a1.71,1.71,0,0,1,1.15.15L113,93.3a3,3,0,0,0,1.59.28,1.13,1.13,0,0,0,.94-1.2c-.15-.79-1.29-1.17-1.18-2a1.24,1.24,0,0,1,.37-.67,15.49,15.49,0,0,1,12.67-5.31c.56,1-.33,2.14-1.07,3s-1.34,2.34-.45,3a2.27,2.27,0,0,0,1.19.28,10.06,10.06,0,0,1,3.17,1c1.54.72,3.06,1.5,4.54,2.34a6.38,6.38,0,0,1,.11-3.1,2,2,0,0,1,2.35-1.36c.89.37,1.34,1.62,2.29,1.73,1.26.15,1.76-1.82,1.23-3s-1.57-2.25-1.66-3.6c-.06-.91.27-2-.41-2.58a1.7,1.7,0,0,0-.81-.3l-17-3.34c-1-.2-2.47,0-2.52,1,0,.6.49,1.21.26,1.77s-1,.54-1.61.75a2.38,2.38,0,0,0-1.27,2.47,7.16,7.16,0,0,0,1.07,2.78C115.68,86.78,114,86.69,112.89,86.2Z" transform="translate(-7.24 -7.5)"/><path id="Path_51" data-name="Path 51" class="cls-5" d="M99.3,70.84a5.31,5.31,0,0,0-6.06,1.92A1.33,1.33,0,0,0,93,74.12c.33.61,1.19.37,1.82.15a4.41,4.41,0,0,1,2.89-.07c.59.22,1.12.6,1.72.81a1.67,1.67,0,0,0,1.77-.28A2.58,2.58,0,0,0,101.6,73a1.52,1.52,0,0,0-.34-1.16,1.7,1.7,0,0,0-.79-.24,2.7,2.7,0,0,1-1.57-1" transform="translate(-7.24 -7.5)"/><path id="Path_52" data-name="Path 52" class="cls-6" d="M105.44,69a1.36,1.36,0,0,0-1.23.65,1.55,1.55,0,0,0-.13,1.45,5.44,5.44,0,0,0,2.27.16,2,2,0,0,0,1.59-1.55,3.44,3.44,0,0,1-2.59-.52" transform="translate(-7.24 -7.5)"/><path id="Path_53" data-name="Path 53" class="cls-7" d="M126.05,66a25.08,25.08,0,0,0-5.81,2.1A4.67,4.67,0,0,1,123,72.75a2.49,2.49,0,0,0,0,1.15,1.82,1.82,0,0,0,1.37.9,8.62,8.62,0,0,0,3,.41,3,3,0,0,0,2.5-1.62,11.36,11.36,0,0,1,.52-1.3c1.3-2.11,5.18.44,6.58-1.6.5-.72.45-1.8,1.09-2.37a2.45,2.45,0,0,1,1.13-.46,76.13,76.13,0,0,1,8.52-1.29c1.35-.12,3.12-.64,3.13-2.08a22.36,22.36,0,0,0-15.06,2.15c-1.68.89-3.9,2.77-5.51,1.59-.61-.45-.58-1.64-1.41-2.14A4,4,0,0,0,126.05,66Z" transform="translate(-7.24 -7.5)"/><path id="Path_54" data-name="Path 54" class="cls-8" d="M142.75,69.3l2.4.49a3,3,0,0,0-2.38,1,3.43,3.43,0,0,0-.85,2.56c2.24.8,4.69,0,7.05.13s5.12,1.9,4.72,4.38a5.11,5.11,0,0,0-.32,2.22,8.68,8.68,0,0,0,.81,1.34,3.14,3.14,0,0,1-.53,3.1c-.63.88-1.47,1.6-2,2.53-1.37,2.35-.59,5.38.22,8a7.13,7.13,0,0,0,1.28,2.71c1.21,1.37,3.18,1.49,4.94,1.51,1.29,0,2.76,0,3.57-1.1,1.06-1.38.32-3.53,1-5.15.63-1.47,2.25-2.1,3.71-2.54a53.41,53.41,0,0,0,7.95-2.76c3.14-1.54,6.08-3.93,9.54-4.13a12.8,12.8,0,0,0,2.9-.21,2.3,2.3,0,0,0,1.75-2.17A4.1,4.1,0,0,0,187.2,79c-.55-.66-1-1.68-.47-2.38l9.06-1.8c-.64-1.86-1.14-4.31.34-5.52.53-.44,1.24-.62,1.7-1.14a2.44,2.44,0,0,0-.51-3.22,5.56,5.56,0,0,0-3.25-1,80.8,80.8,0,0,0-11.95.11l-23.36,1.36c-1.57.09-3.38,0-4.81.52-1.22.48-2.08,1.36-3.48,1.67C147.9,68.16,145.08,67.77,142.75,69.3Z" transform="translate(-7.24 -7.5)"/><path id="Path_55" data-name="Path 55" class="cls-9" d="M185.68,89.42a.93.93,0,0,0-.7.17,1,1,0,0,0-.22.57,3.93,3.93,0,0,0,.51,2.7A2.46,2.46,0,0,0,187.55,94c1.08-.15,1.88-1.13,2.87-1.6,1.53-.74,8-1.88,3.53-4.46-1.55-.89-2.55-.1-3.77.48A8.19,8.19,0,0,1,185.68,89.42Z" transform="translate(-7.24 -7.5)"/><path id="Path_56" data-name="Path 56" class="cls-10" d="M225,67.85A2.64,2.64,0,0,0,223.78,69a1.2,1.2,0,0,0,.41,1.55,1.6,1.6,0,0,0,.61.1l2.14.07c.9,0,2,.23,2.28,1.16.18.68-.23,1.57.26,2.06a1.32,1.32,0,0,0,.73.3,4.73,4.73,0,0,0,2.15.08c1.55-.45.73-1.45,1.22-2.35.75-1.37.62-.54,1.94-1.32,1-.58,2.23-1.64,1.41-3.11C235.52,65,227.11,66.74,225,67.85Z" transform="translate(-7.24 -7.5)"/><path id="Path_57" data-name="Path 57" class="cls-11" d="M267.12,66.56l-1.24.17a47.8,47.8,0,0,0-8.29,1.69,13,13,0,0,0,3.63.94,10.81,10.81,0,0,1,2,.31c1.19.38,2.38,1.35,3.53.85.71-.31.94-1.1,1.53-1.51.41-.29,1.95-.76,2.13-1.05C271.84,65.61,268.19,66.4,267.12,66.56Z" transform="translate(-7.24 -7.5)"/><path id="Path_58" data-name="Path 58" class="cls-12" d="M272.56,72.54A23.15,23.15,0,0,0,268,76.09a3,3,0,0,0-1.12,2.15c.07,1.12,1.2,1.77,2.17,2.21l4,1.78c.48-.72,0-1.71-.46-2.42a3.06,3.06,0,0,1-.86-2.37c.25-1,1.36-1.3,2.3-1.47,1.52-.27,5.62-.25,5.13-2.85C278.53,70.05,274.09,71.63,272.56,72.54Z" transform="translate(-7.24 -7.5)"/><path id="Path_59" data-name="Path 59" class="cls-13" d="M271.76,246.19a4.24,4.24,0,0,0,.24,3.53,3.26,3.26,0,0,0,3.46,1.27,6.27,6.27,0,0,0,3.22-2.19,12,12,0,0,0,1.85-3,25.15,25.15,0,0,0,1.37-5.33l1.23-6.85c.27-1.53.26-6.23-2.39-4.7-.72.42-2.4,3.72-3.16,4.65-1.37,1.69-1.55,3.32-2.27,5.37C274.41,241.49,272.6,243.62,271.76,246.19Z" transform="translate(-7.24 -7.5)"/><path id="Path_65" data-name="Path 65" class="cls-14" d="M371.79,218.41a3.42,3.42,0,0,0-2.36-.12c-.74.33-1.17,1.48-.58,2.06a75.82,75.82,0,0,1,14,.28,31.7,31.7,0,0,1,8.18,2.12,2.53,2.53,0,0,0-1.59-3.21,2.56,2.56,0,0,0-.67-.13h-4.51a38.41,38.41,0,0,0-4.25-.7C377,218.45,374.73,219.29,371.79,218.41Z" transform="translate(-7.24 -7.5)"/><path id="Path_66" data-name="Path 66" class="cls-15" d="M376.46,201.18c-.39,0-.87-.07-1.07.29s0,.78-.07,1.16-.78.65-1.28.58a2.3,2.3,0,0,0-1.49,0,1.37,1.37,0,0,0-.49,1.52,4,4,0,0,0,.86,1.46,14.77,14.77,0,0,0,2.23,2.38c1.6,1.25,3.78,1.86,4.79,3.68a2.3,2.3,0,0,0,.63.91,1.68,1.68,0,0,0,1.64-.17l1.83-.89a1.63,1.63,0,0,0,1.08-2,1.59,1.59,0,0,0-.42-.69,3.75,3.75,0,0,1-.72-2.06c.13-1.33,1.74-1.83,2.4-3s.23-2.61.31-4c.09-1.57,1-3.61-.48-4.78-1.27-1-2.48-.08-3.39,1C380.9,199,380,201.49,376.46,201.18Z" transform="translate(-7.24 -7.5)"/><path id="Path_67" data-name="Path 67" class="cls-16" d="M387.55,177.75c.63,1.27,1.93,2,2.6,3.26s-.35,1.77.45,3.07.28-3.92.5-5.4c-.15,1-1.47-.46-1.81-1-.69-1.11-.32-3.25-.45-4.47A3.58,3.58,0,0,0,387.55,177.75Z" transform="translate(-7.24 -7.5)"/><path id="Path_68" data-name="Path 68" class="cls-17" d="M354.23,197.27c-.61-.73-1.53-1.48-2.35-1.05a1.64,1.64,0,0,0-.55,1.95,4.23,4.23,0,0,0,1.33,1.69,46.39,46.39,0,0,1,5,4.57c2.67,3.11,4.08,7.3,7,10.17a3.87,3.87,0,0,0,2.2,1.26,1.71,1.71,0,0,0,1.88-1.39,2.7,2.7,0,0,0-.87-1.94c-1.13-1.3-2.36-2.5-3.42-3.85a3.27,3.27,0,0,1-.87-1.94c0-.73.62-1.5,1.28-1.31-.81-.22-1.41-1.66-2.6-1.93-1-.22-1.23.43-2.42-.11C357.58,202.36,355.81,199.15,354.23,197.27Z" transform="translate(-7.24 -7.5)"/><path id="Path_70" data-name="Path 70" class="cls-18" d="M237.78,147.4a5.65,5.65,0,0,1,0,2.71,1.74,1.74,0,0,1-2,1.33c-.64-.21-1-.89-1.47-1.41-2.53-2.9-8.24-1.22-9.81-4.82-.63-1.46-.2-3.22-.64-4.76a4,4,0,0,0-4-2.92,7.9,7.9,0,0,0-2.33.73,55.78,55.78,0,0,1-15.44,4.1,12,12,0,0,0-3,.58c-2.17.83-3.66,3-4.72,5.16s-1.84,4.55-3.25,6.49a27.72,27.72,0,0,1-5.53,5,5.82,5.82,0,0,0-1.82,2,6.7,6.7,0,0,0-.37,3l.4,12.43a12,12,0,0,0,.79,4.68c.84,1.79,2.5,3,3.66,4.54A9.28,9.28,0,0,1,190,192c0,.82-.1,1.8.5,2.31a2.21,2.21,0,0,0,1.24.38L207.61,196c2.78.25,5.87.64,7.69,2.9.85,1.06,1.54,2.59,2.86,2.7a9.47,9.47,0,0,0,1.67-.24c1.42-.12,2.67,1,3.46,2.29a10.67,10.67,0,0,1,1.54,6.52c-.13,1.44-.55,2.84-.64,4.28-.35,5.5,4,10.27,4.12,15.77.05,3.24-1.4,6.27-2.8,9.14,2.27,3.66.41,8.54,1.32,12.83.86,4.06,4,7.24,4.84,11.32.37,1.87.39,4.17,1.94,5.13a4.25,4.25,0,0,0,2.19.47A27.62,27.62,0,0,0,249,266c1.92-1,3.9-2.52,4.24-4.77.27-1.81-.6-3.83.28-5.41,1-1.86,3.7-1.71,5.22-3.14,2.48-2.32.55-6.74,1.55-10.08.9-3,4-4.6,5.55-7.29a13.6,13.6,0,0,0,1.28-3.71,54.83,54.83,0,0,0,1.31-9.45q.08-2.91.4-5.79c1.66-10.95,11.85-18.27,15.16-28.79.31-1,.46-2.34-.38-2.9a2.22,2.22,0,0,0-1.6-.18l-7.3,1a4.78,4.78,0,0,1-2.7-.16,1.89,1.89,0,0,1-1-2.37c1.24-2.38-1.31-5.4-2.44-7.84a116.37,116.37,0,0,0-10.85-18.68,2,2,0,0,1-.47-1.1l2.07.07c-.7-2.66-1.86-5.57-4.29-6.55a10,10,0,0,0-4.36-.27A60.22,60.22,0,0,1,237.78,147.4Z" transform="translate(-7.24 -7.5)"/><path id="Path_71" data-name="Path 71" class="cls-19" d="M250.64,87.37c1.1,1.23,2.33,2.55,3.91,2.76,2.81.38,4.83-2.7,6.11-5.38a2.55,2.55,0,0,0,2.59,2.44,5,5,0,0,0,1.94-.81,36.53,36.53,0,0,1,18.12-5,2.08,2.08,0,0,1,1.5-2.28c1.29-.27,2.45.91,3.07,2.14s1,2.65,2,3.57,2.9.88,3.29-.45-.88-2.37-1.92-3.12-2.15-2.15-1.44-3.27a89,89,0,0,1,16.13-2.75,6.46,6.46,0,0,0,2.71-.5,2.27,2.27,0,0,0,1.27-2.37,6,6,0,0,1-6.42-2.57c7.56-.66,15.6-1.23,22.3,2.55.8,1.83-3.29,3.36-2.2,5a1.92,1.92,0,0,0,1.66.6,77.35,77.35,0,0,0,13.94-.57,17.65,17.65,0,0,1,5.07-.43c2.81.37,5.22,2.36,8,3a4.09,4.09,0,0,0,3.34-.42,2.35,2.35,0,0,0,.58-3.19c2.6-2.71,6.92-2,10.36-.74s6.7,3.39,10.33,3.68c2.61.21,5.26-.53,7.84-.06a55.75,55.75,0,0,1,6.3,2.17l.27,19.48a50.48,50.48,0,0,0-6.22,2.5,2.67,2.67,0,0,0-1.18,1,2,2,0,0,0,.71,2.31,5.52,5.52,0,0,0,2.34.85c3.72.75,4.35,1.85,4.35,1.85L391,128.32a4.6,4.6,0,0,0-1.67,1.23,2.83,2.83,0,0,0-.24,2.15,21.63,21.63,0,0,0,1.92,3.89v8a14.11,14.11,0,0,1-2.2-2.84,15.11,15.11,0,0,0-1.5-3.24c-2.2-2.81-7.16-1.61-9.13-4.61a5,5,0,0,0-.93,4.51c.92-.61,2.18,0,2.87.85a21,21,0,0,1,1.56,3c.73,1.34,1.89,2.53,2,4.08a12.9,12.9,0,0,0,0,1.76,7.25,7.25,0,0,0,1.44,2.4,7.25,7.25,0,0,1,.37,6.4,19.76,19.76,0,0,1-3.55,5.48,64.49,64.49,0,0,1-7.74,8.28A8.31,8.31,0,0,0,372,172a2.68,2.68,0,0,0,.24,3.08c-.56,0-1.56.32-2.12.35a57.21,57.21,0,0,1-.13-7.17c-2.2-1.12-4.58,1.89-4.3,4.47s2,4.66,3.3,6.89a8.54,8.54,0,0,1,1.3,5.41c-.31,1.88-1.88,3.6-3.67,3.44-2.84-.26-4-4.59-6.83-5.08a1.05,1.05,0,0,0-.74.07c-.42.25-.49.84-.51,1.34-.12,2.48-.22,5,.7,7.34,1.33,3.34,4.77,6.14,4.05,9.69-3.89-1.92-5.91-6.55-6.83-11s-1.07-9.12-2.72-13.32c-1.25,1.7-3.87.29-5-1.49s-1.75-3.65-2.8-5.36-2.66-3.25-4.58-3.34-3.77,1.37-5.3,2.75a12.8,12.8,0,0,0-3.3,3.91c-1.08,2.3-.8,5-.85,7.57-.06,2.77-.61,5.7-2.39,7.73s-5.06,2.73-7,.9a8.49,8.49,0,0,1-2-3.75,194.33,194.33,0,0,1-5.31-20.14c-.33,1.56-1.62,3.56-2.85,2.64a2.67,2.67,0,0,1-.65-.9c-2.29-4.12-6.54-6.6-10.83-8.08s-8.8-2.18-13-3.81a32.25,32.25,0,0,1-6.77-3.58,6,6,0,0,0-.32,5.78,4.23,4.23,0,0,0,4.89,2.18c.94-.32,1.74-1,2.67-1.36a2,2,0,0,1,2.6.78c.39.92-.2,2,.09,3,.45,1.46,2.52,1.57,3.24,2.89a2.79,2.79,0,0,1-.67,3.09,12.25,12.25,0,0,1-2.73,1.79c-3,1.8-5.2,4.86-7.86,7.24s-6.41,4.13-9.58,2.6c.76-4.06-3.8-7-4.64-11.08-.27-1.33-.13-2.74-.52-4-.57-1.88-2.14-3.17-3.43-4.59a18.68,18.68,0,0,1-4.65-13.1,19,19,0,0,0,0-5c-.36-1.63-1.63-3.2-3.2-3.13-3.59.16-8.12.45-10-2.8-.67-1.17-1-2.87,0-3.75a3.24,3.24,0,0,1,2.6-.48l8.09.85c1.9.2,3.94.36,5.57-.69s2.33-3.84.82-5.08c-1.1-.9-3.07-.85-3.39-2.29-.26-1.2,1-2.55.31-3.55-.48-.72-1.57-.52-2.23,0a14.66,14.66,0,0,1-1.87,1.74c-1.29.71-2.83,0-4.22-.43s-3.26-.5-3.93.87c-.76,1.53.67,3.54-.08,5.07-1,2-4.34.88-5.73,2.63-1.59,2,1.09,5,.55,7.55a4.24,4.24,0,0,1-4.37-.26,4.64,4.64,0,0,1-1.83-4.19c.14-1.15.7-2.33.32-3.42a3.82,3.82,0,0,0-1.91-1.85l-7.86-4.62c-.73,1.44.19,3.22,1.34,4.3s2.6,1.89,3.36,3.32a4.48,4.48,0,0,1-1.54,5.73.9.9,0,0,1-.78.15,1.14,1.14,0,0,1-.51-.72c-1.38-3.77-3.47-7.49-6.8-9.46s-8.11-1.57-10.3,1.75c-.51.79-.86,1.69-1.31,2.52-2.4,4.43-7.55,6.53-12.37,6.39a2.26,2.26,0,0,1-1.34-.34c-.78-.57-.75-1.78-.63-2.77l.5-4.23a3.52,3.52,0,0,1,.88-2.31c.89-.75,2.18-.28,3.31-.29a4.25,4.25,0,0,0,3.81-3.13,5.22,5.22,0,0,0-1.31-5c-.52-.52-1.22-1.17-.95-1.87a1.47,1.47,0,0,1,1-.73c2-.63,4.2-.79,6.2-1.54a6.61,6.61,0,0,0,4.43-4.45c.14-.67.21-1.49.78-1.82a2.15,2.15,0,0,1,.9-.2,4.61,4.61,0,0,0,3.77-4.87c1-.71,2.3-.19,3.23.57s1.75,1.76,2.88,2.09c2.11.61,4.15-1.37,6.33-1.38.92,0,1.87.34,2.73,0s1.4-1.26,2.07-1.95,1.86-1.1,2.48-.36l-.53-4.16a7.29,7.29,0,0,0,6.26-1.2l-6.83-2.45a1.56,1.56,0,0,1-.64-.36c-.5-.57,0-1.46.4-2.1,1-1.55,1.13-4.09-.46-4.86-1.08-.53-2.33.1-3.37.72l-5,3c-.16,1,1,1.58,1.71,2.26a3.17,3.17,0,0,1,.79,3.35,2.89,2.89,0,0,1-2.67,2,4,4,0,0,1,.65,3.24L227,104a1.4,1.4,0,0,1-1.09-.22c-.36-.34-.31-.93-.39-1.44a3,3,0,0,0-2.46-2.27,8.13,8.13,0,0,0-3.43.33,2,2,0,0,1-1.48,0,1.54,1.54,0,0,1-.58-.79,4.2,4.2,0,0,1,.76-3.86,20.38,20.38,0,0,1,2.86-2.79,17.9,17.9,0,0,0,5-8.17c1.84-.82,3.75-1.94,5.6-2.76a16.42,16.42,0,0,1,9.22-1.9l6.26.13a14.29,14.29,0,0,1,5.46.83A5.38,5.38,0,0,1,256,85.35a1.08,1.08,0,0,1-1.19,1.4C253.1,86.84,252.36,87.3,250.64,87.37Z" transform="translate(-7.24 -7.5)"/><path id="Path_72" data-name="Path 72" class="cls-20" d="M200.78,108.18a2,2,0,0,0,.5-2,3.25,3.25,0,0,0-3.54.71,5.88,5.88,0,0,0-1,1.33c-.83,1.43-1.55,3.13-1.08,4.72a1.38,1.38,0,0,0,.58.84,1.4,1.4,0,0,0,.67.11,20.44,20.44,0,0,0,2.71-.18c.55-.07,1.2-.23,1.41-.78.28-.72-.4-1.53-.2-2.28a2.33,2.33,0,0,1,.58-.87,1.23,1.23,0,0,0,.34-1c-.08-.35-.59-.55-.77-.24" transform="translate(-7.24 -7.5)"/><path id="Path_73" data-name="Path 73" class="cls-21" d="M205.48,101.72a7,7,0,0,0-2.46-.16,1,1,0,0,0-.52.12.93.93,0,0,0-.32.5,2.51,2.51,0,0,0,1.35,3,2.77,2.77,0,0,1,.83.35c.7.57.26,1.74.39,2.67s1.09,1.9.92,2.93c-.14.82-1,1.46-.83,2.27s1.16,1.11,2,1.18a2.33,2.33,0,0,0,1.4-.17,2.38,2.38,0,0,0,.88-1.35,9.28,9.28,0,0,0,.41-3.27,3.43,3.43,0,0,0-.35-1.44,6.91,6.91,0,0,0-.81-1C206.78,105.47,208.42,102.6,205.48,101.72Z" transform="translate(-7.24 -7.5)"/><path id="Path_74" data-name="Path 74" class="cls-22" d="M377.07,206.08s-86.21-26.49-137.48-12.74c0,0-108.67,12.42-121.26,39.74,0,0-34.54-114.63-47.14-118.45" transform="translate(-7.24 -7.5)"/><path id="Path_75" data-name="Path 75" class="cls-22" d="M118.33,233.08c20-56.55,199.88-119.21,199.88-119.21-25.55,6.88-78.62,79.47-78.62,79.47s-112.27-86.73-168.4-78.71c0,0,215.23-36.79,306.81,92.17" transform="translate(-7.24 -7.5)"/><ellipse id="Ellipse_1" data-name="Ellipse 1" class="cls-23" cx="63.95" cy="107.13" rx="5.22" ry="5.54"/><ellipse id="Ellipse_2" data-name="Ellipse 2" class="cls-23" cx="111.09" cy="225.58" rx="5.22" ry="5.54"/><ellipse id="Ellipse_3" data-name="Ellipse 3" class="cls-23" cx="310.09" cy="106.37" rx="5.22" ry="5.54"/><ellipse id="Ellipse_5" data-name="Ellipse 5" class="cls-23" cx="232.35" cy="185.84" rx="5.22" ry="5.54"/><ellipse id="Ellipse_14" data-name="Ellipse 14" class="cls-23" cx="370.76" cy="198.48" rx="5.22" ry="5.54"/></g></g></svg>